M48
;GenerationSoftware,Autodesk,EAGLE,9.6.2*%
;CreationDate,2022-12-24T14:08:55Z*%
FMAT,2
ICI,OFF
METRIC,TZ,000.000
T10C0.700
T9C0.813
T8C0.864
T7C0.900
T6C1.000
T5C1.118
T4C1.321
T3C1.803
T2C2.000
T1C3.302
%
G90
M71
T1
X23876Y69850
X31750Y34925
T2
X33909Y59010
X33909Y50210
T3
X13970Y6350
X17932Y6350
X21895Y6350
T4
X21590Y24130
X31750Y16510
X21590Y16510
X26670Y24130
X6350Y24130
X6350Y16510
X26670Y16510
X31750Y24130
T5
X6350Y69850
X6350Y67310
X14224Y37465
X14224Y34925
X12573Y41910
X2413Y41910
X14224Y32385
X3810Y3810
X3810Y55880
X3810Y50800
X32385Y69342
X32385Y66802
X3810Y8890
X32385Y64262
X6350Y72390
T6
X26909Y57110
X26909Y54610
X26909Y52110
T7
X10160Y30480
X18542Y62738
X26162Y62738
X15875Y46355
X8255Y46355
X2540Y30480
X10922Y62738
X3302Y62738
T8
X21971Y58420
T9
X6350Y34290
X13589Y55880
X21971Y55880
X21971Y53340
X21971Y50800
X13589Y50800
X13589Y53340
X13589Y58420
X6350Y36830
T10
X30480Y45700
X30480Y43200
X19304Y46355
X21844Y46355
M30