G04 EAGLE Gerber RS-274X export*
G75*
%MOMM*%
%FSLAX34Y34*%
%LPD*%
%INTop Copper*%
%IPPOS*%
%AMOC8*
5,1,8,0,0,1.08239X$1,22.5*%
G01*
%ADD10R,1.651000X1.651000*%
%ADD11C,1.651000*%
%ADD12C,2.705100*%
%ADD13C,1.676400*%
%ADD14C,1.879600*%
%ADD15C,1.905000*%
%ADD16C,1.879600*%
%ADD17C,1.981200*%
%ADD18C,1.676400*%
%ADD19R,1.879600X1.879600*%
%ADD20P,3.247170X8X202.500000*%


D10*
X304800Y457000D03*
D11*
X304800Y432000D03*
X193040Y463550D03*
X218440Y463550D03*
D12*
X139700Y77026D02*
X139700Y49975D01*
X179324Y49975D02*
X179324Y77026D01*
X218948Y77026D02*
X218948Y49975D01*
D13*
X125730Y419100D03*
X24130Y419100D03*
D14*
X63500Y342900D03*
X63500Y368300D03*
D15*
X135890Y584200D03*
X135890Y558800D03*
X135890Y533400D03*
X135890Y508000D03*
X219710Y508000D03*
X219710Y533400D03*
X219710Y558800D03*
X219710Y584200D03*
D16*
X47498Y88900D02*
X28702Y88900D01*
X28702Y38100D02*
X47498Y38100D01*
X47498Y558800D02*
X28702Y558800D01*
X28702Y508000D02*
X47498Y508000D01*
X314452Y693420D02*
X333248Y693420D01*
X333248Y668020D02*
X314452Y668020D01*
X314452Y642620D02*
X333248Y642620D01*
D17*
X63500Y175006D02*
X63500Y155194D01*
X63500Y231394D02*
X63500Y251206D01*
X266700Y251206D02*
X266700Y231394D01*
X215900Y175006D02*
X215900Y155194D01*
X317500Y155194D02*
X317500Y175006D01*
X266700Y175006D02*
X266700Y155194D01*
X215900Y231394D02*
X215900Y251206D01*
X317500Y251206D02*
X317500Y231394D01*
D18*
X71882Y723900D02*
X55118Y723900D01*
X55118Y698500D02*
X71882Y698500D01*
X71882Y673100D02*
X55118Y673100D01*
X133858Y374650D02*
X150622Y374650D01*
X150622Y349250D02*
X133858Y349250D01*
X133858Y323850D02*
X150622Y323850D01*
D14*
X25400Y304800D03*
X101600Y304800D03*
X185420Y627380D03*
X261620Y627380D03*
X158750Y463550D03*
X82550Y463550D03*
X33020Y627380D03*
X109220Y627380D03*
D19*
X269090Y571100D03*
X269090Y546100D03*
X269090Y521100D03*
D20*
X339090Y590100D03*
X339090Y502100D03*
M02*
