G04 EAGLE Gerber RS-274X export*
G75*
%MOMM*%
%FSLAX34Y34*%
%LPD*%
%INSilkscreen Top*%
%IPPOS*%
%AMOC8*
5,1,8,0,0,1.08239X$1,22.5*%
G01*
%ADD10C,0.203200*%
%ADD11C,0.127000*%
%ADD12C,0.152400*%
%ADD13R,0.508000X2.540000*%
%ADD14R,1.905000X0.762000*%
%ADD15C,0.025400*%
%ADD16C,0.254000*%
%ADD17C,0.177800*%
%ADD18C,0.050800*%
%ADD19C,0.101600*%
%ADD20R,0.635000X0.762000*%
%ADD21R,2.794000X1.270000*%

G36*
X144006Y597977D02*
X144006Y597977D01*
X144054Y597991D01*
X144144Y598008D01*
X145151Y598360D01*
X145195Y598385D01*
X145279Y598422D01*
X146182Y598990D01*
X146219Y599024D01*
X146293Y599078D01*
X147047Y599832D01*
X147076Y599874D01*
X147136Y599943D01*
X147703Y600846D01*
X147722Y600893D01*
X147765Y600974D01*
X148117Y601981D01*
X148125Y602031D01*
X148148Y602119D01*
X148268Y603179D01*
X148264Y603229D01*
X148268Y603321D01*
X148148Y604381D01*
X148134Y604429D01*
X148117Y604519D01*
X147765Y605526D01*
X147740Y605570D01*
X147703Y605654D01*
X147136Y606557D01*
X147102Y606594D01*
X147047Y606668D01*
X146293Y607422D01*
X146251Y607451D01*
X146182Y607511D01*
X145279Y608078D01*
X145232Y608097D01*
X145151Y608140D01*
X144144Y608492D01*
X144094Y608500D01*
X144006Y608523D01*
X142946Y608643D01*
X142896Y608639D01*
X142804Y608643D01*
X141744Y608523D01*
X141696Y608509D01*
X141606Y608492D01*
X140599Y608140D01*
X140555Y608115D01*
X140471Y608078D01*
X139568Y607511D01*
X139531Y607477D01*
X139457Y607422D01*
X138703Y606668D01*
X138674Y606626D01*
X138615Y606557D01*
X138047Y605654D01*
X138028Y605607D01*
X137985Y605526D01*
X137633Y604519D01*
X137625Y604469D01*
X137602Y604381D01*
X137482Y603321D01*
X137486Y603271D01*
X137482Y603179D01*
X137602Y602119D01*
X137616Y602071D01*
X137633Y601981D01*
X137985Y600974D01*
X138010Y600930D01*
X138047Y600846D01*
X138615Y599943D01*
X138649Y599906D01*
X138703Y599832D01*
X139457Y599078D01*
X139499Y599049D01*
X139568Y598990D01*
X140471Y598422D01*
X140518Y598403D01*
X140599Y598360D01*
X141606Y598008D01*
X141656Y598000D01*
X141744Y597977D01*
X142804Y597857D01*
X142854Y597861D01*
X142946Y597857D01*
X144006Y597977D01*
G37*
D10*
X279800Y444500D02*
X279808Y445114D01*
X279830Y445727D01*
X279868Y446339D01*
X279920Y446950D01*
X279988Y447560D01*
X280071Y448168D01*
X280168Y448774D01*
X280280Y449377D01*
X280407Y449978D01*
X280549Y450575D01*
X280706Y451168D01*
X280876Y451757D01*
X281062Y452342D01*
X281261Y452922D01*
X281475Y453497D01*
X281703Y454067D01*
X281945Y454631D01*
X282200Y455189D01*
X282469Y455740D01*
X282752Y456285D01*
X283048Y456822D01*
X283357Y457353D01*
X283679Y457875D01*
X284013Y458389D01*
X284360Y458895D01*
X284720Y459392D01*
X285091Y459881D01*
X285475Y460360D01*
X285870Y460829D01*
X286276Y461289D01*
X286694Y461739D01*
X287122Y462178D01*
X287561Y462606D01*
X288011Y463024D01*
X288471Y463430D01*
X288940Y463825D01*
X289419Y464209D01*
X289908Y464580D01*
X290405Y464940D01*
X290911Y465287D01*
X291425Y465621D01*
X291947Y465943D01*
X292478Y466252D01*
X293015Y466548D01*
X293560Y466831D01*
X294111Y467100D01*
X294669Y467355D01*
X295233Y467597D01*
X295803Y467825D01*
X296378Y468039D01*
X296958Y468238D01*
X297543Y468424D01*
X298132Y468594D01*
X298725Y468751D01*
X299322Y468893D01*
X299923Y469020D01*
X300526Y469132D01*
X301132Y469229D01*
X301740Y469312D01*
X302350Y469380D01*
X302961Y469432D01*
X303573Y469470D01*
X304186Y469492D01*
X304800Y469500D01*
X305414Y469492D01*
X306027Y469470D01*
X306639Y469432D01*
X307250Y469380D01*
X307860Y469312D01*
X308468Y469229D01*
X309074Y469132D01*
X309677Y469020D01*
X310278Y468893D01*
X310875Y468751D01*
X311468Y468594D01*
X312057Y468424D01*
X312642Y468238D01*
X313222Y468039D01*
X313797Y467825D01*
X314367Y467597D01*
X314931Y467355D01*
X315489Y467100D01*
X316040Y466831D01*
X316585Y466548D01*
X317122Y466252D01*
X317653Y465943D01*
X318175Y465621D01*
X318689Y465287D01*
X319195Y464940D01*
X319692Y464580D01*
X320181Y464209D01*
X320660Y463825D01*
X321129Y463430D01*
X321589Y463024D01*
X322039Y462606D01*
X322478Y462178D01*
X322906Y461739D01*
X323324Y461289D01*
X323730Y460829D01*
X324125Y460360D01*
X324509Y459881D01*
X324880Y459392D01*
X325240Y458895D01*
X325587Y458389D01*
X325921Y457875D01*
X326243Y457353D01*
X326552Y456822D01*
X326848Y456285D01*
X327131Y455740D01*
X327400Y455189D01*
X327655Y454631D01*
X327897Y454067D01*
X328125Y453497D01*
X328339Y452922D01*
X328538Y452342D01*
X328724Y451757D01*
X328894Y451168D01*
X329051Y450575D01*
X329193Y449978D01*
X329320Y449377D01*
X329432Y448774D01*
X329529Y448168D01*
X329612Y447560D01*
X329680Y446950D01*
X329732Y446339D01*
X329770Y445727D01*
X329792Y445114D01*
X329800Y444500D01*
X329792Y443886D01*
X329770Y443273D01*
X329732Y442661D01*
X329680Y442050D01*
X329612Y441440D01*
X329529Y440832D01*
X329432Y440226D01*
X329320Y439623D01*
X329193Y439022D01*
X329051Y438425D01*
X328894Y437832D01*
X328724Y437243D01*
X328538Y436658D01*
X328339Y436078D01*
X328125Y435503D01*
X327897Y434933D01*
X327655Y434369D01*
X327400Y433811D01*
X327131Y433260D01*
X326848Y432715D01*
X326552Y432178D01*
X326243Y431647D01*
X325921Y431125D01*
X325587Y430611D01*
X325240Y430105D01*
X324880Y429608D01*
X324509Y429119D01*
X324125Y428640D01*
X323730Y428171D01*
X323324Y427711D01*
X322906Y427261D01*
X322478Y426822D01*
X322039Y426394D01*
X321589Y425976D01*
X321129Y425570D01*
X320660Y425175D01*
X320181Y424791D01*
X319692Y424420D01*
X319195Y424060D01*
X318689Y423713D01*
X318175Y423379D01*
X317653Y423057D01*
X317122Y422748D01*
X316585Y422452D01*
X316040Y422169D01*
X315489Y421900D01*
X314931Y421645D01*
X314367Y421403D01*
X313797Y421175D01*
X313222Y420961D01*
X312642Y420762D01*
X312057Y420576D01*
X311468Y420406D01*
X310875Y420249D01*
X310278Y420107D01*
X309677Y419980D01*
X309074Y419868D01*
X308468Y419771D01*
X307860Y419688D01*
X307250Y419620D01*
X306639Y419568D01*
X306027Y419530D01*
X305414Y419508D01*
X304800Y419500D01*
X304186Y419508D01*
X303573Y419530D01*
X302961Y419568D01*
X302350Y419620D01*
X301740Y419688D01*
X301132Y419771D01*
X300526Y419868D01*
X299923Y419980D01*
X299322Y420107D01*
X298725Y420249D01*
X298132Y420406D01*
X297543Y420576D01*
X296958Y420762D01*
X296378Y420961D01*
X295803Y421175D01*
X295233Y421403D01*
X294669Y421645D01*
X294111Y421900D01*
X293560Y422169D01*
X293015Y422452D01*
X292478Y422748D01*
X291947Y423057D01*
X291425Y423379D01*
X290911Y423713D01*
X290405Y424060D01*
X289908Y424420D01*
X289419Y424791D01*
X288940Y425175D01*
X288471Y425570D01*
X288011Y425976D01*
X287561Y426394D01*
X287122Y426822D01*
X286694Y427261D01*
X286276Y427711D01*
X285870Y428171D01*
X285475Y428640D01*
X285091Y429119D01*
X284720Y429608D01*
X284360Y430105D01*
X284013Y430611D01*
X283679Y431125D01*
X283357Y431647D01*
X283048Y432178D01*
X282752Y432715D01*
X282469Y433260D01*
X282200Y433811D01*
X281945Y434369D01*
X281703Y434933D01*
X281475Y435503D01*
X281261Y436078D01*
X281062Y436658D01*
X280876Y437243D01*
X280706Y437832D01*
X280549Y438425D01*
X280407Y439022D01*
X280280Y439623D01*
X280168Y440226D01*
X280071Y440832D01*
X279988Y441440D01*
X279920Y442050D01*
X279868Y442661D01*
X279830Y443273D01*
X279808Y443886D01*
X279800Y444500D01*
X290830Y437080D02*
X290830Y426920D01*
X290830Y451920D02*
X290830Y462080D01*
X285750Y457000D02*
X295910Y457000D01*
D11*
X277495Y443004D02*
X277495Y441932D01*
X277493Y441867D01*
X277487Y441803D01*
X277477Y441739D01*
X277464Y441675D01*
X277446Y441613D01*
X277425Y441552D01*
X277401Y441492D01*
X277372Y441434D01*
X277340Y441377D01*
X277305Y441323D01*
X277267Y441271D01*
X277225Y441221D01*
X277181Y441174D01*
X277134Y441130D01*
X277084Y441088D01*
X277032Y441050D01*
X276978Y441015D01*
X276921Y440983D01*
X276863Y440954D01*
X276803Y440930D01*
X276742Y440909D01*
X276680Y440891D01*
X276616Y440878D01*
X276552Y440868D01*
X276488Y440862D01*
X276423Y440860D01*
X276423Y440859D02*
X273741Y440859D01*
X273676Y440861D01*
X273612Y440867D01*
X273548Y440877D01*
X273484Y440890D01*
X273422Y440908D01*
X273361Y440929D01*
X273301Y440954D01*
X273242Y440982D01*
X273186Y441014D01*
X273131Y441049D01*
X273079Y441087D01*
X273029Y441129D01*
X272982Y441173D01*
X272938Y441220D01*
X272896Y441270D01*
X272858Y441322D01*
X272823Y441377D01*
X272791Y441433D01*
X272763Y441492D01*
X272738Y441551D01*
X272717Y441613D01*
X272699Y441675D01*
X272686Y441739D01*
X272676Y441803D01*
X272670Y441867D01*
X272668Y441932D01*
X272669Y441932D02*
X272669Y443004D01*
X273741Y445460D02*
X272669Y446800D01*
X277495Y446800D01*
X277495Y445460D02*
X277495Y448141D01*
D10*
X205740Y457200D02*
X205740Y469900D01*
D11*
X204244Y474345D02*
X203172Y474345D01*
X203107Y474347D01*
X203043Y474353D01*
X202979Y474363D01*
X202915Y474376D01*
X202853Y474394D01*
X202792Y474415D01*
X202732Y474439D01*
X202674Y474468D01*
X202617Y474500D01*
X202563Y474535D01*
X202511Y474573D01*
X202461Y474615D01*
X202414Y474659D01*
X202370Y474706D01*
X202328Y474756D01*
X202290Y474808D01*
X202255Y474862D01*
X202223Y474919D01*
X202194Y474977D01*
X202170Y475037D01*
X202149Y475098D01*
X202131Y475160D01*
X202118Y475224D01*
X202108Y475288D01*
X202102Y475352D01*
X202100Y475417D01*
X202099Y475417D02*
X202099Y478099D01*
X202100Y478099D02*
X202102Y478164D01*
X202108Y478228D01*
X202118Y478292D01*
X202131Y478356D01*
X202149Y478418D01*
X202170Y478479D01*
X202194Y478539D01*
X202223Y478597D01*
X202255Y478654D01*
X202290Y478708D01*
X202328Y478760D01*
X202370Y478810D01*
X202414Y478857D01*
X202461Y478901D01*
X202511Y478943D01*
X202563Y478981D01*
X202617Y479016D01*
X202674Y479048D01*
X202732Y479077D01*
X202792Y479101D01*
X202853Y479122D01*
X202915Y479140D01*
X202979Y479153D01*
X203043Y479163D01*
X203107Y479169D01*
X203172Y479171D01*
X204244Y479171D01*
X208174Y479171D02*
X208242Y479169D01*
X208309Y479163D01*
X208376Y479154D01*
X208443Y479141D01*
X208508Y479124D01*
X208573Y479103D01*
X208636Y479079D01*
X208698Y479051D01*
X208758Y479020D01*
X208816Y478986D01*
X208872Y478948D01*
X208927Y478908D01*
X208978Y478864D01*
X209027Y478817D01*
X209074Y478768D01*
X209118Y478717D01*
X209158Y478662D01*
X209196Y478606D01*
X209230Y478548D01*
X209261Y478488D01*
X209289Y478426D01*
X209313Y478363D01*
X209334Y478298D01*
X209351Y478233D01*
X209364Y478166D01*
X209373Y478099D01*
X209379Y478032D01*
X209381Y477964D01*
X208174Y479171D02*
X208096Y479169D01*
X208018Y479163D01*
X207941Y479153D01*
X207864Y479140D01*
X207788Y479122D01*
X207713Y479101D01*
X207639Y479076D01*
X207567Y479047D01*
X207496Y479015D01*
X207427Y478979D01*
X207359Y478940D01*
X207294Y478897D01*
X207231Y478851D01*
X207170Y478802D01*
X207112Y478750D01*
X207057Y478695D01*
X207004Y478638D01*
X206955Y478578D01*
X206908Y478515D01*
X206865Y478451D01*
X206825Y478384D01*
X206788Y478315D01*
X206755Y478244D01*
X206725Y478172D01*
X206699Y478099D01*
X208979Y477026D02*
X209028Y477075D01*
X209075Y477127D01*
X209118Y477182D01*
X209159Y477239D01*
X209197Y477298D01*
X209231Y477359D01*
X209262Y477422D01*
X209290Y477486D01*
X209314Y477552D01*
X209334Y477618D01*
X209351Y477686D01*
X209364Y477755D01*
X209373Y477824D01*
X209379Y477894D01*
X209381Y477964D01*
X208979Y477026D02*
X206700Y474345D01*
X209381Y474345D01*
X104648Y114554D02*
X104648Y15748D01*
X254000Y15748D01*
X254000Y114554D01*
X104648Y114554D01*
X249174Y109474D02*
X249174Y20574D01*
X249174Y109474D02*
X201676Y109474D01*
X109474Y109474D02*
X109474Y20574D01*
X157226Y101092D02*
X157226Y109474D01*
X109474Y109474D01*
X157226Y101092D02*
X162052Y101092D01*
X162052Y109474D01*
X157226Y109474D01*
X196850Y109474D02*
X196850Y101092D01*
X196850Y109474D02*
X162052Y109474D01*
X196850Y101092D02*
X201676Y101092D01*
X201676Y109474D01*
X196850Y109474D01*
X137160Y20574D02*
X109474Y20574D01*
X137160Y20574D02*
X137160Y28956D01*
X137160Y20574D02*
X141986Y20574D01*
X141986Y28956D02*
X137160Y28956D01*
X141986Y28956D02*
X141986Y20574D01*
X176784Y20574D01*
X181610Y20574D02*
X181610Y28956D01*
X181610Y20574D02*
X216408Y20574D01*
X181610Y28956D02*
X176784Y28956D01*
X221234Y28956D02*
X221234Y20574D01*
X249174Y20574D01*
X221234Y28956D02*
X216408Y28956D01*
X176784Y28956D02*
X176784Y20574D01*
X181610Y20574D01*
X216408Y20574D02*
X216408Y28956D01*
X216408Y20574D02*
X221234Y20574D01*
X116840Y38100D02*
X116840Y101600D01*
X113030Y82550D01*
X120650Y82550D02*
X116840Y101600D01*
X113030Y82550D02*
X120650Y82550D01*
X113030Y29210D02*
X113032Y29333D01*
X113038Y29457D01*
X113048Y29580D01*
X113062Y29702D01*
X113080Y29824D01*
X113102Y29946D01*
X113127Y30066D01*
X113157Y30186D01*
X113191Y30305D01*
X113228Y30423D01*
X113269Y30539D01*
X113314Y30654D01*
X113363Y30767D01*
X113415Y30879D01*
X113471Y30989D01*
X113530Y31097D01*
X113593Y31203D01*
X113659Y31307D01*
X113729Y31409D01*
X113802Y31509D01*
X113878Y31606D01*
X113957Y31701D01*
X114039Y31793D01*
X114124Y31882D01*
X114212Y31969D01*
X114303Y32052D01*
X114396Y32133D01*
X114492Y32211D01*
X114591Y32285D01*
X114691Y32356D01*
X114794Y32424D01*
X114899Y32489D01*
X115007Y32550D01*
X115116Y32608D01*
X115227Y32662D01*
X115339Y32712D01*
X115454Y32759D01*
X115569Y32802D01*
X115686Y32841D01*
X115804Y32877D01*
X115924Y32908D01*
X116044Y32936D01*
X116165Y32960D01*
X116287Y32980D01*
X116409Y32996D01*
X116532Y33008D01*
X116655Y33016D01*
X116778Y33020D01*
X116902Y33020D01*
X117025Y33016D01*
X117148Y33008D01*
X117271Y32996D01*
X117393Y32980D01*
X117515Y32960D01*
X117636Y32936D01*
X117756Y32908D01*
X117876Y32877D01*
X117994Y32841D01*
X118111Y32802D01*
X118226Y32759D01*
X118341Y32712D01*
X118453Y32662D01*
X118564Y32608D01*
X118673Y32550D01*
X118781Y32489D01*
X118886Y32424D01*
X118989Y32356D01*
X119089Y32285D01*
X119188Y32211D01*
X119284Y32133D01*
X119377Y32052D01*
X119468Y31969D01*
X119556Y31882D01*
X119641Y31793D01*
X119723Y31701D01*
X119802Y31606D01*
X119878Y31509D01*
X119951Y31409D01*
X120021Y31307D01*
X120087Y31203D01*
X120150Y31097D01*
X120209Y30989D01*
X120265Y30879D01*
X120317Y30767D01*
X120366Y30654D01*
X120411Y30539D01*
X120452Y30423D01*
X120489Y30305D01*
X120523Y30186D01*
X120553Y30066D01*
X120578Y29946D01*
X120600Y29824D01*
X120618Y29702D01*
X120632Y29580D01*
X120642Y29457D01*
X120648Y29333D01*
X120650Y29210D01*
X120648Y29087D01*
X120642Y28963D01*
X120632Y28840D01*
X120618Y28718D01*
X120600Y28596D01*
X120578Y28474D01*
X120553Y28354D01*
X120523Y28234D01*
X120489Y28115D01*
X120452Y27997D01*
X120411Y27881D01*
X120366Y27766D01*
X120317Y27653D01*
X120265Y27541D01*
X120209Y27431D01*
X120150Y27323D01*
X120087Y27217D01*
X120021Y27113D01*
X119951Y27011D01*
X119878Y26911D01*
X119802Y26814D01*
X119723Y26719D01*
X119641Y26627D01*
X119556Y26538D01*
X119468Y26451D01*
X119377Y26368D01*
X119284Y26287D01*
X119188Y26209D01*
X119089Y26135D01*
X118989Y26064D01*
X118886Y25996D01*
X118781Y25931D01*
X118673Y25870D01*
X118564Y25812D01*
X118453Y25758D01*
X118341Y25708D01*
X118226Y25661D01*
X118111Y25618D01*
X117994Y25579D01*
X117876Y25543D01*
X117756Y25512D01*
X117636Y25484D01*
X117515Y25460D01*
X117393Y25440D01*
X117271Y25424D01*
X117148Y25412D01*
X117025Y25404D01*
X116902Y25400D01*
X116778Y25400D01*
X116655Y25404D01*
X116532Y25412D01*
X116409Y25424D01*
X116287Y25440D01*
X116165Y25460D01*
X116044Y25484D01*
X115924Y25512D01*
X115804Y25543D01*
X115686Y25579D01*
X115569Y25618D01*
X115454Y25661D01*
X115339Y25708D01*
X115227Y25758D01*
X115116Y25812D01*
X115007Y25870D01*
X114899Y25931D01*
X114794Y25996D01*
X114691Y26064D01*
X114591Y26135D01*
X114492Y26209D01*
X114396Y26287D01*
X114303Y26368D01*
X114212Y26451D01*
X114124Y26538D01*
X114039Y26627D01*
X113957Y26719D01*
X113878Y26814D01*
X113802Y26911D01*
X113729Y27011D01*
X113659Y27113D01*
X113593Y27217D01*
X113530Y27323D01*
X113471Y27431D01*
X113415Y27541D01*
X113363Y27653D01*
X113314Y27766D01*
X113269Y27881D01*
X113228Y27997D01*
X113191Y28115D01*
X113157Y28234D01*
X113127Y28354D01*
X113102Y28474D01*
X113080Y28596D01*
X113062Y28718D01*
X113048Y28840D01*
X113038Y28963D01*
X113032Y29087D01*
X113030Y29210D01*
X122047Y103251D02*
X125222Y105791D01*
X125222Y94361D01*
X122047Y94361D02*
X128397Y94361D01*
X111125Y118745D02*
X108585Y118745D01*
X108485Y118747D01*
X108386Y118753D01*
X108286Y118763D01*
X108188Y118776D01*
X108089Y118794D01*
X107992Y118815D01*
X107896Y118840D01*
X107800Y118869D01*
X107706Y118902D01*
X107613Y118938D01*
X107522Y118978D01*
X107432Y119022D01*
X107344Y119069D01*
X107258Y119119D01*
X107174Y119173D01*
X107092Y119230D01*
X107013Y119290D01*
X106935Y119354D01*
X106861Y119420D01*
X106789Y119489D01*
X106720Y119561D01*
X106654Y119635D01*
X106590Y119713D01*
X106530Y119792D01*
X106473Y119874D01*
X106419Y119958D01*
X106369Y120044D01*
X106322Y120132D01*
X106278Y120222D01*
X106238Y120313D01*
X106202Y120406D01*
X106169Y120500D01*
X106140Y120596D01*
X106115Y120692D01*
X106094Y120789D01*
X106076Y120888D01*
X106063Y120986D01*
X106053Y121086D01*
X106047Y121185D01*
X106045Y121285D01*
X106045Y127635D01*
X106047Y127735D01*
X106053Y127834D01*
X106063Y127934D01*
X106076Y128032D01*
X106094Y128131D01*
X106115Y128228D01*
X106140Y128324D01*
X106169Y128420D01*
X106202Y128514D01*
X106238Y128607D01*
X106278Y128698D01*
X106322Y128788D01*
X106369Y128876D01*
X106419Y128962D01*
X106473Y129046D01*
X106530Y129128D01*
X106590Y129207D01*
X106654Y129285D01*
X106720Y129359D01*
X106789Y129431D01*
X106861Y129500D01*
X106935Y129566D01*
X107013Y129630D01*
X107092Y129690D01*
X107174Y129747D01*
X107258Y129801D01*
X107344Y129851D01*
X107432Y129898D01*
X107522Y129942D01*
X107613Y129982D01*
X107706Y130018D01*
X107800Y130051D01*
X107896Y130080D01*
X107992Y130105D01*
X108089Y130126D01*
X108188Y130144D01*
X108286Y130157D01*
X108386Y130167D01*
X108485Y130173D01*
X108585Y130175D01*
X111125Y130175D01*
X115607Y127000D02*
X115607Y121920D01*
X115607Y127000D02*
X115609Y127111D01*
X115615Y127221D01*
X115624Y127332D01*
X115638Y127442D01*
X115655Y127551D01*
X115676Y127660D01*
X115701Y127768D01*
X115730Y127875D01*
X115762Y127981D01*
X115798Y128086D01*
X115838Y128189D01*
X115881Y128291D01*
X115928Y128392D01*
X115979Y128491D01*
X116032Y128587D01*
X116089Y128682D01*
X116150Y128775D01*
X116213Y128866D01*
X116280Y128955D01*
X116350Y129041D01*
X116423Y129124D01*
X116498Y129206D01*
X116576Y129284D01*
X116658Y129359D01*
X116741Y129432D01*
X116827Y129502D01*
X116916Y129569D01*
X117007Y129632D01*
X117100Y129693D01*
X117195Y129750D01*
X117291Y129803D01*
X117390Y129854D01*
X117491Y129901D01*
X117593Y129944D01*
X117696Y129984D01*
X117801Y130020D01*
X117907Y130052D01*
X118014Y130081D01*
X118122Y130106D01*
X118231Y130127D01*
X118340Y130144D01*
X118450Y130158D01*
X118561Y130167D01*
X118671Y130173D01*
X118782Y130175D01*
X118893Y130173D01*
X119003Y130167D01*
X119114Y130158D01*
X119224Y130144D01*
X119333Y130127D01*
X119442Y130106D01*
X119550Y130081D01*
X119657Y130052D01*
X119763Y130020D01*
X119868Y129984D01*
X119971Y129944D01*
X120073Y129901D01*
X120174Y129854D01*
X120273Y129803D01*
X120370Y129750D01*
X120464Y129693D01*
X120557Y129632D01*
X120648Y129569D01*
X120737Y129502D01*
X120823Y129432D01*
X120906Y129359D01*
X120988Y129284D01*
X121066Y129206D01*
X121141Y129124D01*
X121214Y129041D01*
X121284Y128955D01*
X121351Y128866D01*
X121414Y128775D01*
X121475Y128682D01*
X121532Y128588D01*
X121585Y128491D01*
X121636Y128392D01*
X121683Y128291D01*
X121726Y128189D01*
X121766Y128086D01*
X121802Y127981D01*
X121834Y127875D01*
X121863Y127768D01*
X121888Y127660D01*
X121909Y127551D01*
X121926Y127442D01*
X121940Y127332D01*
X121949Y127221D01*
X121955Y127111D01*
X121957Y127000D01*
X121957Y121920D01*
X121955Y121809D01*
X121949Y121699D01*
X121940Y121588D01*
X121926Y121478D01*
X121909Y121369D01*
X121888Y121260D01*
X121863Y121152D01*
X121834Y121045D01*
X121802Y120939D01*
X121766Y120834D01*
X121726Y120731D01*
X121683Y120629D01*
X121636Y120528D01*
X121585Y120429D01*
X121532Y120332D01*
X121475Y120238D01*
X121414Y120145D01*
X121351Y120054D01*
X121284Y119965D01*
X121214Y119879D01*
X121141Y119796D01*
X121066Y119714D01*
X120988Y119636D01*
X120906Y119561D01*
X120823Y119488D01*
X120737Y119418D01*
X120648Y119351D01*
X120557Y119288D01*
X120464Y119227D01*
X120369Y119170D01*
X120273Y119117D01*
X120174Y119066D01*
X120073Y119019D01*
X119971Y118976D01*
X119868Y118936D01*
X119763Y118900D01*
X119657Y118868D01*
X119550Y118839D01*
X119442Y118814D01*
X119333Y118793D01*
X119224Y118776D01*
X119114Y118762D01*
X119003Y118753D01*
X118893Y118747D01*
X118782Y118745D01*
X118671Y118747D01*
X118561Y118753D01*
X118450Y118762D01*
X118340Y118776D01*
X118231Y118793D01*
X118122Y118814D01*
X118014Y118839D01*
X117907Y118868D01*
X117801Y118900D01*
X117696Y118936D01*
X117593Y118976D01*
X117491Y119019D01*
X117390Y119066D01*
X117291Y119117D01*
X117195Y119170D01*
X117100Y119227D01*
X117007Y119288D01*
X116916Y119351D01*
X116827Y119418D01*
X116741Y119488D01*
X116658Y119561D01*
X116576Y119636D01*
X116498Y119714D01*
X116423Y119796D01*
X116350Y119879D01*
X116280Y119965D01*
X116213Y120054D01*
X116150Y120145D01*
X116089Y120238D01*
X116032Y120333D01*
X115979Y120429D01*
X115928Y120528D01*
X115881Y120629D01*
X115838Y120731D01*
X115798Y120834D01*
X115762Y120939D01*
X115730Y121045D01*
X115701Y121152D01*
X115676Y121260D01*
X115655Y121369D01*
X115638Y121478D01*
X115624Y121588D01*
X115615Y121699D01*
X115609Y121809D01*
X115607Y121920D01*
X127418Y118745D02*
X127418Y130175D01*
X133768Y118745D01*
X133768Y130175D01*
X139610Y130175D02*
X139610Y118745D01*
X145960Y118745D02*
X139610Y130175D01*
X145960Y130175D02*
X145960Y118745D01*
D12*
X95250Y406400D02*
X54610Y406400D01*
X95250Y406400D02*
X95250Y431800D01*
X54610Y431800D01*
X54610Y406400D01*
X68580Y419100D02*
X74930Y419100D01*
X85090Y425450D02*
X85090Y412750D01*
X74930Y419100D01*
X90170Y419100D01*
X85090Y425450D02*
X74930Y419100D01*
X74930Y425450D01*
X74930Y419100D02*
X74930Y412750D01*
D13*
X60960Y419100D03*
D14*
X104775Y419100D03*
X45085Y419100D03*
D11*
X55245Y436245D02*
X55245Y447675D01*
X58420Y447675D01*
X58531Y447673D01*
X58641Y447667D01*
X58752Y447658D01*
X58862Y447644D01*
X58971Y447627D01*
X59080Y447606D01*
X59188Y447581D01*
X59295Y447552D01*
X59401Y447520D01*
X59506Y447484D01*
X59609Y447444D01*
X59711Y447401D01*
X59812Y447354D01*
X59911Y447303D01*
X60008Y447250D01*
X60102Y447193D01*
X60195Y447132D01*
X60286Y447069D01*
X60375Y447002D01*
X60461Y446932D01*
X60544Y446859D01*
X60626Y446784D01*
X60704Y446706D01*
X60779Y446624D01*
X60852Y446541D01*
X60922Y446455D01*
X60989Y446366D01*
X61052Y446275D01*
X61113Y446182D01*
X61170Y446088D01*
X61223Y445991D01*
X61274Y445892D01*
X61321Y445791D01*
X61364Y445689D01*
X61404Y445586D01*
X61440Y445481D01*
X61472Y445375D01*
X61501Y445268D01*
X61526Y445160D01*
X61547Y445051D01*
X61564Y444942D01*
X61578Y444832D01*
X61587Y444721D01*
X61593Y444611D01*
X61595Y444500D01*
X61595Y439420D01*
X61593Y439309D01*
X61587Y439199D01*
X61578Y439088D01*
X61564Y438978D01*
X61547Y438869D01*
X61526Y438760D01*
X61501Y438652D01*
X61472Y438545D01*
X61440Y438439D01*
X61404Y438334D01*
X61364Y438231D01*
X61321Y438129D01*
X61274Y438028D01*
X61223Y437929D01*
X61170Y437832D01*
X61113Y437738D01*
X61052Y437645D01*
X60989Y437554D01*
X60922Y437465D01*
X60852Y437379D01*
X60779Y437296D01*
X60704Y437214D01*
X60626Y437136D01*
X60544Y437061D01*
X60461Y436988D01*
X60375Y436918D01*
X60286Y436851D01*
X60195Y436788D01*
X60102Y436727D01*
X60007Y436670D01*
X59911Y436617D01*
X59812Y436566D01*
X59711Y436519D01*
X59609Y436476D01*
X59506Y436436D01*
X59401Y436400D01*
X59295Y436368D01*
X59188Y436339D01*
X59080Y436314D01*
X58971Y436293D01*
X58862Y436276D01*
X58752Y436262D01*
X58641Y436253D01*
X58531Y436247D01*
X58420Y436245D01*
X55245Y436245D01*
X67056Y445135D02*
X70231Y447675D01*
X70231Y436245D01*
X67056Y436245D02*
X73406Y436245D01*
D10*
X82550Y381000D02*
X44450Y381000D01*
D15*
X43663Y381838D02*
X45035Y380009D01*
X45034Y380009D02*
X44443Y379550D01*
X43863Y379077D01*
X43295Y378590D01*
X42739Y378089D01*
X42196Y377575D01*
X41665Y377048D01*
X41147Y376508D01*
X40642Y375955D01*
X40152Y375390D01*
X39675Y374813D01*
X39212Y374225D01*
X38764Y373626D01*
X38331Y373015D01*
X37912Y372395D01*
X37510Y371764D01*
X37122Y371124D01*
X36750Y370475D01*
X36395Y369816D01*
X36055Y369149D01*
X35732Y368474D01*
X35426Y367791D01*
X35136Y367101D01*
X34863Y366405D01*
X34608Y365701D01*
X34370Y364992D01*
X34149Y364277D01*
X33945Y363557D01*
X33760Y362832D01*
X33592Y362103D01*
X33442Y361369D01*
X33310Y360633D01*
X33196Y359893D01*
X33100Y359151D01*
X33022Y358407D01*
X32962Y357661D01*
X32921Y356914D01*
X32898Y356166D01*
X32894Y355417D01*
X32907Y354669D01*
X32939Y353921D01*
X32989Y353175D01*
X33058Y352430D01*
X33144Y351686D01*
X33249Y350945D01*
X33372Y350207D01*
X33513Y349472D01*
X33671Y348741D01*
X33848Y348014D01*
X34042Y347291D01*
X34254Y346573D01*
X34484Y345861D01*
X34731Y345155D01*
X34995Y344454D01*
X35276Y343761D01*
X35573Y343074D01*
X35888Y342395D01*
X36219Y341724D01*
X36566Y341061D01*
X36930Y340407D01*
X37309Y339762D01*
X37704Y339127D01*
X38115Y338501D01*
X38540Y337885D01*
X38981Y337280D01*
X39436Y336686D01*
X39906Y336104D01*
X40390Y335533D01*
X40887Y334974D01*
X41398Y334427D01*
X41922Y333893D01*
X42459Y333372D01*
X43009Y332864D01*
X43571Y332370D01*
X44145Y331890D01*
X44730Y331424D01*
X45327Y330972D01*
X45935Y330535D01*
X46553Y330113D01*
X47181Y329706D01*
X47819Y329315D01*
X48466Y328940D01*
X49122Y328580D01*
X49787Y328237D01*
X50460Y327910D01*
X51141Y327599D01*
X51829Y327305D01*
X52525Y327029D01*
X53226Y326769D01*
X53934Y326526D01*
X54648Y326301D01*
X55367Y326093D01*
X56091Y325903D01*
X56819Y325731D01*
X57551Y325577D01*
X58287Y325440D01*
X59026Y325322D01*
X59768Y325221D01*
X60511Y325139D01*
X61257Y325075D01*
X62004Y325030D01*
X62752Y325002D01*
X63500Y324993D01*
X64248Y325002D01*
X64996Y325030D01*
X65743Y325075D01*
X66489Y325139D01*
X67232Y325221D01*
X67974Y325322D01*
X68713Y325440D01*
X69449Y325577D01*
X70181Y325731D01*
X70909Y325903D01*
X71633Y326093D01*
X72352Y326301D01*
X73066Y326526D01*
X73774Y326769D01*
X74475Y327029D01*
X75171Y327305D01*
X75859Y327599D01*
X76540Y327910D01*
X77213Y328237D01*
X77878Y328580D01*
X78534Y328940D01*
X79181Y329315D01*
X79819Y329706D01*
X80447Y330113D01*
X81065Y330535D01*
X81673Y330972D01*
X82270Y331424D01*
X82855Y331890D01*
X83429Y332370D01*
X83991Y332864D01*
X84541Y333372D01*
X85078Y333893D01*
X85602Y334427D01*
X86113Y334974D01*
X86610Y335533D01*
X87094Y336104D01*
X87564Y336686D01*
X88019Y337280D01*
X88460Y337885D01*
X88885Y338501D01*
X89296Y339127D01*
X89691Y339762D01*
X90070Y340407D01*
X90434Y341061D01*
X90781Y341724D01*
X91112Y342395D01*
X91427Y343074D01*
X91724Y343761D01*
X92005Y344454D01*
X92269Y345155D01*
X92516Y345861D01*
X92746Y346573D01*
X92958Y347291D01*
X93152Y348014D01*
X93329Y348741D01*
X93487Y349472D01*
X93628Y350207D01*
X93751Y350945D01*
X93856Y351686D01*
X93942Y352430D01*
X94011Y353175D01*
X94061Y353921D01*
X94093Y354669D01*
X94106Y355417D01*
X94102Y356166D01*
X94079Y356914D01*
X94038Y357661D01*
X93978Y358407D01*
X93900Y359151D01*
X93804Y359893D01*
X93690Y360633D01*
X93558Y361369D01*
X93408Y362103D01*
X93240Y362832D01*
X93055Y363557D01*
X92851Y364277D01*
X92630Y364992D01*
X92392Y365701D01*
X92137Y366405D01*
X91864Y367101D01*
X91574Y367791D01*
X91268Y368474D01*
X90945Y369149D01*
X90605Y369816D01*
X90250Y370475D01*
X89878Y371124D01*
X89490Y371764D01*
X89088Y372395D01*
X88669Y373015D01*
X88236Y373626D01*
X87788Y374225D01*
X87325Y374813D01*
X86848Y375390D01*
X86358Y375955D01*
X85853Y376508D01*
X85335Y377048D01*
X84804Y377575D01*
X84261Y378089D01*
X83705Y378590D01*
X83137Y379077D01*
X82557Y379550D01*
X81966Y380009D01*
X83337Y381838D01*
X83973Y381345D01*
X84596Y380837D01*
X85207Y380313D01*
X85805Y379775D01*
X86389Y379223D01*
X86960Y378656D01*
X87517Y378076D01*
X88059Y377482D01*
X88587Y376875D01*
X89099Y376255D01*
X89597Y375623D01*
X90079Y374979D01*
X90544Y374323D01*
X90994Y373656D01*
X91427Y372978D01*
X91844Y372290D01*
X92244Y371592D01*
X92626Y370885D01*
X92991Y370168D01*
X93338Y369443D01*
X93668Y368709D01*
X93979Y367967D01*
X94273Y367218D01*
X94548Y366463D01*
X94804Y365700D01*
X95042Y364932D01*
X95260Y364158D01*
X95460Y363379D01*
X95641Y362595D01*
X95802Y361807D01*
X95944Y361015D01*
X96067Y360220D01*
X96170Y359423D01*
X96254Y358623D01*
X96318Y357821D01*
X96362Y357018D01*
X96387Y356214D01*
X96392Y355410D01*
X96378Y354605D01*
X96344Y353802D01*
X96290Y352999D01*
X96217Y352198D01*
X96124Y351399D01*
X96011Y350603D01*
X95879Y349810D01*
X95728Y349020D01*
X95558Y348234D01*
X95368Y347452D01*
X95159Y346675D01*
X94931Y345904D01*
X94685Y345138D01*
X94420Y344379D01*
X94136Y343626D01*
X93834Y342881D01*
X93514Y342143D01*
X93176Y341413D01*
X92820Y340691D01*
X92447Y339979D01*
X92056Y339276D01*
X91649Y338583D01*
X91224Y337899D01*
X90783Y337227D01*
X90326Y336565D01*
X89852Y335915D01*
X89363Y335277D01*
X88859Y334650D01*
X88339Y334036D01*
X87804Y333436D01*
X87255Y332848D01*
X86691Y332274D01*
X86114Y331714D01*
X85523Y331168D01*
X84919Y330637D01*
X84303Y330121D01*
X83673Y329620D01*
X83032Y329134D01*
X82379Y328664D01*
X81715Y328211D01*
X81040Y327774D01*
X80354Y327353D01*
X79659Y326949D01*
X78953Y326563D01*
X78239Y326194D01*
X77515Y325842D01*
X76783Y325508D01*
X76044Y325193D01*
X75296Y324895D01*
X74542Y324616D01*
X73781Y324355D01*
X73014Y324113D01*
X72241Y323890D01*
X71463Y323686D01*
X70681Y323500D01*
X69894Y323334D01*
X69103Y323188D01*
X68309Y323060D01*
X67512Y322953D01*
X66712Y322864D01*
X65911Y322795D01*
X65108Y322746D01*
X64304Y322717D01*
X63500Y322707D01*
X62696Y322717D01*
X61892Y322746D01*
X61089Y322795D01*
X60288Y322864D01*
X59488Y322953D01*
X58691Y323060D01*
X57897Y323188D01*
X57106Y323334D01*
X56319Y323500D01*
X55537Y323686D01*
X54759Y323890D01*
X53986Y324113D01*
X53219Y324355D01*
X52458Y324616D01*
X51704Y324895D01*
X50956Y325193D01*
X50217Y325508D01*
X49485Y325842D01*
X48761Y326194D01*
X48047Y326563D01*
X47341Y326949D01*
X46646Y327353D01*
X45960Y327774D01*
X45285Y328211D01*
X44621Y328664D01*
X43968Y329134D01*
X43327Y329620D01*
X42697Y330121D01*
X42081Y330637D01*
X41477Y331168D01*
X40886Y331714D01*
X40309Y332274D01*
X39745Y332848D01*
X39196Y333436D01*
X38661Y334036D01*
X38141Y334650D01*
X37637Y335277D01*
X37148Y335915D01*
X36674Y336565D01*
X36217Y337227D01*
X35776Y337899D01*
X35351Y338583D01*
X34944Y339276D01*
X34553Y339979D01*
X34180Y340691D01*
X33824Y341413D01*
X33486Y342143D01*
X33166Y342881D01*
X32864Y343626D01*
X32580Y344379D01*
X32315Y345138D01*
X32069Y345904D01*
X31841Y346675D01*
X31632Y347452D01*
X31442Y348234D01*
X31272Y349020D01*
X31121Y349810D01*
X30989Y350603D01*
X30876Y351399D01*
X30783Y352198D01*
X30710Y352999D01*
X30656Y353802D01*
X30622Y354605D01*
X30608Y355410D01*
X30613Y356214D01*
X30638Y357018D01*
X30682Y357821D01*
X30746Y358623D01*
X30830Y359423D01*
X30933Y360220D01*
X31056Y361015D01*
X31198Y361807D01*
X31359Y362595D01*
X31540Y363379D01*
X31740Y364158D01*
X31958Y364932D01*
X32196Y365700D01*
X32452Y366463D01*
X32727Y367218D01*
X33021Y367967D01*
X33332Y368709D01*
X33662Y369443D01*
X34009Y370168D01*
X34374Y370885D01*
X34756Y371592D01*
X35156Y372290D01*
X35573Y372978D01*
X36006Y373656D01*
X36456Y374323D01*
X36921Y374979D01*
X37403Y375623D01*
X37901Y376255D01*
X38413Y376875D01*
X38941Y377482D01*
X39483Y378076D01*
X40040Y378656D01*
X40611Y379223D01*
X41195Y379775D01*
X41793Y380313D01*
X42404Y380837D01*
X43027Y381345D01*
X43663Y381838D01*
X43807Y381646D01*
X43176Y381157D01*
X42557Y380652D01*
X41951Y380133D01*
X41357Y379598D01*
X40777Y379050D01*
X40211Y378487D01*
X39658Y377911D01*
X39120Y377321D01*
X38596Y376719D01*
X38087Y376103D01*
X37593Y375476D01*
X37115Y374837D01*
X36652Y374186D01*
X36206Y373524D01*
X35776Y372851D01*
X35362Y372168D01*
X34966Y371475D01*
X34586Y370773D01*
X34224Y370061D01*
X33879Y369341D01*
X33552Y368613D01*
X33243Y367876D01*
X32952Y367133D01*
X32679Y366383D01*
X32424Y365626D01*
X32188Y364863D01*
X31971Y364095D01*
X31773Y363321D01*
X31594Y362543D01*
X31433Y361761D01*
X31292Y360975D01*
X31171Y360186D01*
X31068Y359394D01*
X30985Y358600D01*
X30921Y357804D01*
X30877Y357007D01*
X30853Y356209D01*
X30848Y355410D01*
X30862Y354612D01*
X30896Y353814D01*
X30949Y353018D01*
X31022Y352223D01*
X31114Y351430D01*
X31226Y350639D01*
X31357Y349851D01*
X31507Y349067D01*
X31676Y348287D01*
X31865Y347511D01*
X32072Y346740D01*
X32298Y345974D01*
X32543Y345214D01*
X32806Y344460D01*
X33088Y343713D01*
X33387Y342973D01*
X33705Y342240D01*
X34041Y341516D01*
X34394Y340800D01*
X34764Y340093D01*
X35152Y339395D01*
X35557Y338706D01*
X35978Y338028D01*
X36416Y337361D01*
X36870Y336704D01*
X37340Y336058D01*
X37826Y335425D01*
X38327Y334803D01*
X38843Y334194D01*
X39373Y333597D01*
X39919Y333014D01*
X40478Y332444D01*
X41051Y331888D01*
X41638Y331346D01*
X42237Y330819D01*
X42849Y330306D01*
X43474Y329809D01*
X44111Y329327D01*
X44759Y328861D01*
X45418Y328411D01*
X46088Y327977D01*
X46769Y327559D01*
X47460Y327158D01*
X48160Y326775D01*
X48869Y326408D01*
X49587Y326059D01*
X50314Y325728D01*
X51048Y325414D01*
X51790Y325119D01*
X52539Y324842D01*
X53294Y324583D01*
X54055Y324343D01*
X54822Y324121D01*
X55595Y323918D01*
X56372Y323735D01*
X57153Y323570D01*
X57938Y323424D01*
X58726Y323298D01*
X59518Y323191D01*
X60311Y323103D01*
X61107Y323035D01*
X61904Y322986D01*
X62702Y322957D01*
X63500Y322947D01*
X64298Y322957D01*
X65096Y322986D01*
X65893Y323035D01*
X66689Y323103D01*
X67482Y323191D01*
X68274Y323298D01*
X69062Y323424D01*
X69847Y323570D01*
X70628Y323735D01*
X71405Y323918D01*
X72178Y324121D01*
X72945Y324343D01*
X73706Y324583D01*
X74461Y324842D01*
X75210Y325119D01*
X75952Y325414D01*
X76686Y325728D01*
X77413Y326059D01*
X78131Y326408D01*
X78840Y326775D01*
X79540Y327158D01*
X80231Y327559D01*
X80912Y327977D01*
X81582Y328411D01*
X82241Y328861D01*
X82889Y329327D01*
X83526Y329809D01*
X84151Y330306D01*
X84763Y330819D01*
X85362Y331346D01*
X85949Y331888D01*
X86522Y332444D01*
X87081Y333014D01*
X87627Y333597D01*
X88157Y334194D01*
X88673Y334803D01*
X89174Y335425D01*
X89660Y336058D01*
X90130Y336704D01*
X90584Y337361D01*
X91022Y338028D01*
X91443Y338706D01*
X91848Y339395D01*
X92236Y340093D01*
X92606Y340800D01*
X92959Y341516D01*
X93295Y342240D01*
X93613Y342973D01*
X93912Y343713D01*
X94194Y344460D01*
X94457Y345214D01*
X94702Y345974D01*
X94928Y346740D01*
X95135Y347511D01*
X95324Y348287D01*
X95493Y349067D01*
X95643Y349851D01*
X95774Y350639D01*
X95886Y351430D01*
X95978Y352223D01*
X96051Y353018D01*
X96104Y353814D01*
X96138Y354612D01*
X96152Y355410D01*
X96147Y356209D01*
X96123Y357007D01*
X96079Y357804D01*
X96015Y358600D01*
X95932Y359394D01*
X95829Y360186D01*
X95708Y360975D01*
X95567Y361761D01*
X95406Y362543D01*
X95227Y363321D01*
X95029Y364095D01*
X94812Y364863D01*
X94576Y365626D01*
X94321Y366383D01*
X94048Y367133D01*
X93757Y367876D01*
X93448Y368613D01*
X93121Y369341D01*
X92776Y370061D01*
X92414Y370773D01*
X92034Y371475D01*
X91638Y372168D01*
X91224Y372851D01*
X90794Y373524D01*
X90348Y374186D01*
X89885Y374837D01*
X89407Y375476D01*
X88913Y376103D01*
X88404Y376719D01*
X87880Y377321D01*
X87342Y377911D01*
X86789Y378487D01*
X86223Y379050D01*
X85643Y379598D01*
X85049Y380133D01*
X84443Y380652D01*
X83824Y381157D01*
X83193Y381646D01*
X83049Y381454D01*
X83676Y380968D01*
X84290Y380467D01*
X84892Y379952D01*
X85481Y379421D01*
X86056Y378877D01*
X86619Y378318D01*
X87167Y377746D01*
X87702Y377161D01*
X88222Y376563D01*
X88727Y375952D01*
X89217Y375329D01*
X89692Y374695D01*
X90151Y374048D01*
X90594Y373391D01*
X91021Y372724D01*
X91431Y372045D01*
X91825Y371358D01*
X92202Y370660D01*
X92561Y369954D01*
X92904Y369239D01*
X93228Y368516D01*
X93535Y367786D01*
X93824Y367048D01*
X94095Y366303D01*
X94348Y365551D01*
X94582Y364794D01*
X94797Y364032D01*
X94994Y363264D01*
X95172Y362491D01*
X95331Y361715D01*
X95471Y360935D01*
X95592Y360152D01*
X95694Y359366D01*
X95776Y358577D01*
X95839Y357787D01*
X95883Y356996D01*
X95907Y356204D01*
X95912Y355411D01*
X95898Y354619D01*
X95864Y353827D01*
X95811Y353036D01*
X95739Y352247D01*
X95647Y351460D01*
X95537Y350675D01*
X95407Y349893D01*
X95258Y349115D01*
X95089Y348340D01*
X94903Y347570D01*
X94697Y346804D01*
X94472Y346044D01*
X94230Y345290D01*
X93968Y344542D01*
X93689Y343800D01*
X93391Y343065D01*
X93076Y342338D01*
X92743Y341619D01*
X92392Y340908D01*
X92024Y340206D01*
X91639Y339513D01*
X91238Y338830D01*
X90819Y338157D01*
X90385Y337494D01*
X89934Y336842D01*
X89467Y336202D01*
X88985Y335573D01*
X88488Y334955D01*
X87976Y334351D01*
X87449Y333759D01*
X86908Y333180D01*
X86353Y332614D01*
X85784Y332062D01*
X85202Y331524D01*
X84606Y331001D01*
X83999Y330492D01*
X83379Y329998D01*
X82747Y329520D01*
X82103Y329057D01*
X81449Y328610D01*
X80784Y328180D01*
X80108Y327765D01*
X79422Y327367D01*
X78727Y326987D01*
X78023Y326623D01*
X77310Y326276D01*
X76589Y325947D01*
X75860Y325636D01*
X75124Y325343D01*
X74381Y325068D01*
X73631Y324811D01*
X72875Y324572D01*
X72114Y324352D01*
X71347Y324151D01*
X70576Y323969D01*
X69800Y323805D01*
X69021Y323661D01*
X68238Y323535D01*
X67453Y323429D01*
X66665Y323342D01*
X65876Y323274D01*
X65085Y323226D01*
X64293Y323197D01*
X63500Y323187D01*
X62707Y323197D01*
X61915Y323226D01*
X61124Y323274D01*
X60335Y323342D01*
X59547Y323429D01*
X58762Y323535D01*
X57979Y323661D01*
X57200Y323805D01*
X56424Y323969D01*
X55653Y324151D01*
X54886Y324352D01*
X54125Y324572D01*
X53369Y324811D01*
X52619Y325068D01*
X51876Y325343D01*
X51140Y325636D01*
X50411Y325947D01*
X49690Y326276D01*
X48977Y326623D01*
X48273Y326987D01*
X47578Y327367D01*
X46892Y327765D01*
X46216Y328180D01*
X45551Y328610D01*
X44897Y329057D01*
X44253Y329520D01*
X43621Y329998D01*
X43001Y330492D01*
X42394Y331001D01*
X41798Y331524D01*
X41216Y332062D01*
X40647Y332614D01*
X40092Y333180D01*
X39551Y333759D01*
X39024Y334351D01*
X38512Y334955D01*
X38015Y335573D01*
X37533Y336202D01*
X37066Y336842D01*
X36615Y337494D01*
X36181Y338157D01*
X35762Y338830D01*
X35361Y339513D01*
X34976Y340206D01*
X34608Y340908D01*
X34257Y341619D01*
X33924Y342338D01*
X33609Y343065D01*
X33311Y343800D01*
X33032Y344542D01*
X32770Y345290D01*
X32528Y346044D01*
X32303Y346804D01*
X32097Y347570D01*
X31911Y348340D01*
X31742Y349115D01*
X31593Y349893D01*
X31463Y350675D01*
X31353Y351460D01*
X31261Y352247D01*
X31189Y353036D01*
X31136Y353827D01*
X31102Y354619D01*
X31088Y355411D01*
X31093Y356204D01*
X31117Y356996D01*
X31161Y357787D01*
X31224Y358577D01*
X31306Y359366D01*
X31408Y360152D01*
X31529Y360935D01*
X31669Y361715D01*
X31828Y362491D01*
X32006Y363264D01*
X32203Y364032D01*
X32418Y364794D01*
X32652Y365551D01*
X32905Y366303D01*
X33176Y367048D01*
X33465Y367786D01*
X33772Y368516D01*
X34096Y369239D01*
X34439Y369954D01*
X34798Y370660D01*
X35175Y371358D01*
X35569Y372045D01*
X35979Y372724D01*
X36406Y373391D01*
X36849Y374048D01*
X37308Y374695D01*
X37783Y375329D01*
X38273Y375952D01*
X38778Y376563D01*
X39298Y377161D01*
X39833Y377746D01*
X40381Y378318D01*
X40944Y378877D01*
X41519Y379421D01*
X42108Y379952D01*
X42710Y380467D01*
X43324Y380968D01*
X43951Y381454D01*
X44095Y381262D01*
X43473Y380780D01*
X42863Y380283D01*
X42266Y379771D01*
X41682Y379244D01*
X41110Y378704D01*
X40552Y378149D01*
X40007Y377582D01*
X39477Y377001D01*
X38961Y376407D01*
X38459Y375801D01*
X37973Y375182D01*
X37502Y374552D01*
X37046Y373911D01*
X36606Y373259D01*
X36183Y372596D01*
X35775Y371923D01*
X35384Y371240D01*
X35010Y370548D01*
X34654Y369847D01*
X34314Y369138D01*
X33992Y368420D01*
X33687Y367695D01*
X33400Y366962D01*
X33131Y366223D01*
X32881Y365477D01*
X32648Y364725D01*
X32434Y363968D01*
X32239Y363206D01*
X32062Y362440D01*
X31905Y361669D01*
X31766Y360895D01*
X31646Y360117D01*
X31545Y359337D01*
X31463Y358555D01*
X31400Y357770D01*
X31357Y356985D01*
X31333Y356199D01*
X31328Y355412D01*
X31342Y354625D01*
X31375Y353839D01*
X31428Y353055D01*
X31500Y352271D01*
X31591Y351490D01*
X31701Y350711D01*
X31830Y349935D01*
X31978Y349162D01*
X32145Y348393D01*
X32330Y347629D01*
X32534Y346869D01*
X32757Y346115D01*
X32998Y345366D01*
X33257Y344623D01*
X33535Y343887D01*
X33830Y343158D01*
X34143Y342436D01*
X34474Y341722D01*
X34822Y341017D01*
X35187Y340320D01*
X35569Y339632D01*
X35968Y338954D01*
X36383Y338286D01*
X36815Y337628D01*
X37262Y336981D01*
X37725Y336345D01*
X38204Y335721D01*
X38697Y335108D01*
X39206Y334508D01*
X39729Y333920D01*
X40266Y333345D01*
X40817Y332784D01*
X41381Y332236D01*
X41959Y331702D01*
X42550Y331183D01*
X43153Y330678D01*
X43769Y330188D01*
X44396Y329713D01*
X45035Y329254D01*
X45684Y328810D01*
X46345Y328382D01*
X47015Y327971D01*
X47696Y327576D01*
X48386Y327198D01*
X49085Y326837D01*
X49792Y326493D01*
X50508Y326167D01*
X51231Y325858D01*
X51962Y325567D01*
X52700Y325294D01*
X53444Y325039D01*
X54194Y324802D01*
X54950Y324584D01*
X55711Y324384D01*
X56477Y324203D01*
X57246Y324041D01*
X58020Y323897D01*
X58797Y323773D01*
X59576Y323667D01*
X60358Y323581D01*
X61142Y323514D01*
X61927Y323465D01*
X62713Y323437D01*
X63500Y323427D01*
X64287Y323437D01*
X65073Y323465D01*
X65858Y323514D01*
X66642Y323581D01*
X67424Y323667D01*
X68203Y323773D01*
X68980Y323897D01*
X69754Y324041D01*
X70523Y324203D01*
X71289Y324384D01*
X72050Y324584D01*
X72806Y324802D01*
X73556Y325039D01*
X74300Y325294D01*
X75038Y325567D01*
X75769Y325858D01*
X76492Y326167D01*
X77208Y326493D01*
X77915Y326837D01*
X78614Y327198D01*
X79304Y327576D01*
X79985Y327971D01*
X80655Y328382D01*
X81316Y328810D01*
X81965Y329254D01*
X82604Y329713D01*
X83231Y330188D01*
X83847Y330678D01*
X84450Y331183D01*
X85041Y331702D01*
X85619Y332236D01*
X86183Y332784D01*
X86734Y333345D01*
X87271Y333920D01*
X87794Y334508D01*
X88303Y335108D01*
X88796Y335721D01*
X89275Y336345D01*
X89738Y336981D01*
X90185Y337628D01*
X90617Y338286D01*
X91032Y338954D01*
X91431Y339632D01*
X91813Y340320D01*
X92178Y341017D01*
X92526Y341722D01*
X92857Y342436D01*
X93170Y343158D01*
X93465Y343887D01*
X93743Y344623D01*
X94002Y345366D01*
X94243Y346115D01*
X94466Y346869D01*
X94670Y347629D01*
X94855Y348393D01*
X95022Y349162D01*
X95170Y349935D01*
X95299Y350711D01*
X95409Y351490D01*
X95500Y352271D01*
X95572Y353055D01*
X95625Y353839D01*
X95658Y354625D01*
X95672Y355412D01*
X95667Y356199D01*
X95643Y356985D01*
X95600Y357770D01*
X95537Y358555D01*
X95455Y359337D01*
X95354Y360117D01*
X95234Y360895D01*
X95095Y361669D01*
X94938Y362440D01*
X94761Y363206D01*
X94566Y363968D01*
X94352Y364725D01*
X94119Y365477D01*
X93869Y366223D01*
X93600Y366962D01*
X93313Y367695D01*
X93008Y368420D01*
X92686Y369138D01*
X92346Y369847D01*
X91990Y370548D01*
X91616Y371240D01*
X91225Y371923D01*
X90817Y372596D01*
X90394Y373259D01*
X89954Y373911D01*
X89498Y374552D01*
X89027Y375182D01*
X88541Y375801D01*
X88039Y376407D01*
X87523Y377001D01*
X86993Y377582D01*
X86448Y378149D01*
X85890Y378704D01*
X85318Y379244D01*
X84734Y379771D01*
X84137Y380283D01*
X83527Y380780D01*
X82905Y381262D01*
X82761Y381070D01*
X83378Y380591D01*
X83983Y380098D01*
X84576Y379590D01*
X85156Y379067D01*
X85724Y378531D01*
X86278Y377981D01*
X86818Y377417D01*
X87345Y376840D01*
X87857Y376251D01*
X88354Y375649D01*
X88837Y375036D01*
X89305Y374410D01*
X89757Y373774D01*
X90193Y373126D01*
X90614Y372469D01*
X91018Y371801D01*
X91406Y371123D01*
X91777Y370436D01*
X92132Y369740D01*
X92469Y369036D01*
X92789Y368324D01*
X93091Y367604D01*
X93376Y366877D01*
X93642Y366143D01*
X93891Y365403D01*
X94122Y364657D01*
X94334Y363905D01*
X94528Y363149D01*
X94703Y362388D01*
X94860Y361623D01*
X94998Y360855D01*
X95117Y360083D01*
X95217Y359309D01*
X95298Y358532D01*
X95360Y357754D01*
X95403Y356974D01*
X95427Y356194D01*
X95432Y355413D01*
X95418Y354632D01*
X95385Y353852D01*
X95333Y353073D01*
X95262Y352295D01*
X95171Y351520D01*
X95062Y350747D01*
X94934Y349976D01*
X94787Y349210D01*
X94621Y348447D01*
X94437Y347688D01*
X94235Y346934D01*
X94013Y346185D01*
X93774Y345442D01*
X93517Y344705D01*
X93241Y343974D01*
X92948Y343250D01*
X92637Y342534D01*
X92309Y341825D01*
X91964Y341125D01*
X91601Y340434D01*
X91222Y339751D01*
X90826Y339078D01*
X90414Y338415D01*
X89986Y337762D01*
X89542Y337120D01*
X89082Y336488D01*
X88608Y335869D01*
X88118Y335261D01*
X87613Y334665D01*
X87094Y334082D01*
X86561Y333511D01*
X86014Y332954D01*
X85453Y332410D01*
X84880Y331880D01*
X84293Y331365D01*
X83695Y330864D01*
X83084Y330377D01*
X82461Y329906D01*
X81827Y329450D01*
X81183Y329010D01*
X80527Y328585D01*
X79862Y328177D01*
X79186Y327785D01*
X78501Y327410D01*
X77808Y327052D01*
X77106Y326710D01*
X76395Y326386D01*
X75677Y326080D01*
X74952Y325791D01*
X74219Y325520D01*
X73481Y325267D01*
X72736Y325032D01*
X71986Y324815D01*
X71231Y324617D01*
X70471Y324437D01*
X69707Y324276D01*
X68939Y324134D01*
X68168Y324010D01*
X67394Y323905D01*
X66618Y323820D01*
X65840Y323753D01*
X65061Y323705D01*
X64281Y323677D01*
X63500Y323667D01*
X62719Y323677D01*
X61939Y323705D01*
X61160Y323753D01*
X60382Y323820D01*
X59606Y323905D01*
X58832Y324010D01*
X58061Y324134D01*
X57293Y324276D01*
X56529Y324437D01*
X55769Y324617D01*
X55014Y324815D01*
X54264Y325032D01*
X53519Y325267D01*
X52781Y325520D01*
X52048Y325791D01*
X51323Y326080D01*
X50605Y326386D01*
X49894Y326710D01*
X49192Y327052D01*
X48499Y327410D01*
X47814Y327785D01*
X47138Y328177D01*
X46473Y328585D01*
X45817Y329010D01*
X45173Y329450D01*
X44539Y329906D01*
X43916Y330377D01*
X43305Y330864D01*
X42707Y331365D01*
X42120Y331880D01*
X41547Y332410D01*
X40986Y332954D01*
X40439Y333511D01*
X39906Y334082D01*
X39387Y334665D01*
X38882Y335261D01*
X38392Y335869D01*
X37918Y336488D01*
X37458Y337120D01*
X37014Y337762D01*
X36586Y338415D01*
X36174Y339078D01*
X35778Y339751D01*
X35399Y340434D01*
X35036Y341125D01*
X34691Y341825D01*
X34363Y342534D01*
X34052Y343250D01*
X33759Y343974D01*
X33483Y344705D01*
X33226Y345442D01*
X32987Y346185D01*
X32765Y346934D01*
X32563Y347688D01*
X32379Y348447D01*
X32213Y349210D01*
X32066Y349976D01*
X31938Y350747D01*
X31829Y351520D01*
X31738Y352295D01*
X31667Y353073D01*
X31615Y353852D01*
X31582Y354632D01*
X31568Y355413D01*
X31573Y356194D01*
X31597Y356974D01*
X31640Y357754D01*
X31702Y358532D01*
X31783Y359309D01*
X31883Y360083D01*
X32002Y360855D01*
X32140Y361623D01*
X32297Y362388D01*
X32472Y363149D01*
X32666Y363905D01*
X32878Y364657D01*
X33109Y365403D01*
X33358Y366143D01*
X33624Y366877D01*
X33909Y367604D01*
X34211Y368324D01*
X34531Y369036D01*
X34868Y369740D01*
X35223Y370436D01*
X35594Y371123D01*
X35982Y371801D01*
X36386Y372469D01*
X36807Y373126D01*
X37243Y373774D01*
X37695Y374410D01*
X38163Y375036D01*
X38646Y375649D01*
X39143Y376251D01*
X39655Y376840D01*
X40182Y377417D01*
X40722Y377981D01*
X41276Y378531D01*
X41844Y379067D01*
X42424Y379590D01*
X43017Y380098D01*
X43622Y380591D01*
X44239Y381070D01*
X44383Y380878D01*
X43770Y380403D01*
X43170Y379913D01*
X42582Y379409D01*
X42006Y378890D01*
X41443Y378358D01*
X40893Y377812D01*
X40357Y377252D01*
X39834Y376680D01*
X39326Y376095D01*
X38832Y375498D01*
X38353Y374889D01*
X37889Y374268D01*
X37440Y373637D01*
X37007Y372994D01*
X36589Y372341D01*
X36188Y371678D01*
X35803Y371006D01*
X35435Y370324D01*
X35083Y369633D01*
X34749Y368934D01*
X34431Y368227D01*
X34131Y367513D01*
X33849Y366791D01*
X33584Y366063D01*
X33337Y365328D01*
X33108Y364588D01*
X32898Y363842D01*
X32705Y363092D01*
X32531Y362336D01*
X32376Y361577D01*
X32239Y360814D01*
X32121Y360049D01*
X32021Y359280D01*
X31941Y358509D01*
X31879Y357737D01*
X31836Y356963D01*
X31812Y356189D01*
X31808Y355414D01*
X31822Y354639D01*
X31855Y353865D01*
X31906Y353091D01*
X31977Y352320D01*
X32067Y351550D01*
X32175Y350783D01*
X32302Y350018D01*
X32448Y349257D01*
X32613Y348500D01*
X32795Y347747D01*
X32997Y346998D01*
X33216Y346255D01*
X33454Y345518D01*
X33709Y344786D01*
X33982Y344061D01*
X34273Y343343D01*
X34582Y342632D01*
X34907Y341929D01*
X35250Y341234D01*
X35610Y340547D01*
X35986Y339870D01*
X36379Y339202D01*
X36788Y338544D01*
X37213Y337896D01*
X37654Y337258D01*
X38110Y336632D01*
X38581Y336017D01*
X39068Y335413D01*
X39568Y334822D01*
X40084Y334243D01*
X40613Y333677D01*
X41156Y333124D01*
X41712Y332584D01*
X42281Y332058D01*
X42863Y331547D01*
X43457Y331049D01*
X44064Y330567D01*
X44681Y330099D01*
X45310Y329646D01*
X45950Y329209D01*
X46601Y328788D01*
X47262Y328383D01*
X47932Y327994D01*
X48611Y327622D01*
X49300Y327266D01*
X49997Y326927D01*
X50702Y326606D01*
X51415Y326302D01*
X52135Y326015D01*
X52861Y325746D01*
X53594Y325495D01*
X54333Y325262D01*
X55078Y325047D01*
X55827Y324850D01*
X56582Y324671D01*
X57340Y324511D01*
X58102Y324370D01*
X58867Y324247D01*
X59635Y324144D01*
X60405Y324058D01*
X61177Y323992D01*
X61951Y323945D01*
X62725Y323916D01*
X63500Y323907D01*
X64275Y323916D01*
X65049Y323945D01*
X65823Y323992D01*
X66595Y324058D01*
X67365Y324144D01*
X68133Y324247D01*
X68898Y324370D01*
X69660Y324511D01*
X70418Y324671D01*
X71173Y324850D01*
X71922Y325047D01*
X72667Y325262D01*
X73406Y325495D01*
X74139Y325746D01*
X74865Y326015D01*
X75585Y326302D01*
X76298Y326606D01*
X77003Y326927D01*
X77700Y327266D01*
X78389Y327622D01*
X79068Y327994D01*
X79738Y328383D01*
X80399Y328788D01*
X81050Y329209D01*
X81690Y329646D01*
X82319Y330099D01*
X82936Y330567D01*
X83543Y331049D01*
X84137Y331547D01*
X84719Y332058D01*
X85288Y332584D01*
X85844Y333124D01*
X86387Y333677D01*
X86916Y334243D01*
X87432Y334822D01*
X87932Y335413D01*
X88419Y336017D01*
X88890Y336632D01*
X89346Y337258D01*
X89787Y337896D01*
X90212Y338544D01*
X90621Y339202D01*
X91014Y339870D01*
X91390Y340547D01*
X91750Y341234D01*
X92093Y341929D01*
X92418Y342632D01*
X92727Y343343D01*
X93018Y344061D01*
X93291Y344786D01*
X93546Y345518D01*
X93784Y346255D01*
X94003Y346998D01*
X94205Y347747D01*
X94387Y348500D01*
X94552Y349257D01*
X94698Y350018D01*
X94825Y350783D01*
X94933Y351550D01*
X95023Y352320D01*
X95094Y353091D01*
X95145Y353865D01*
X95178Y354639D01*
X95192Y355414D01*
X95188Y356189D01*
X95164Y356963D01*
X95121Y357737D01*
X95059Y358509D01*
X94979Y359280D01*
X94879Y360049D01*
X94761Y360814D01*
X94624Y361577D01*
X94469Y362336D01*
X94295Y363092D01*
X94102Y363842D01*
X93892Y364588D01*
X93663Y365328D01*
X93416Y366063D01*
X93151Y366791D01*
X92869Y367513D01*
X92569Y368227D01*
X92251Y368934D01*
X91917Y369633D01*
X91565Y370324D01*
X91197Y371006D01*
X90812Y371678D01*
X90411Y372341D01*
X89993Y372994D01*
X89560Y373637D01*
X89111Y374268D01*
X88647Y374889D01*
X88168Y375498D01*
X87674Y376095D01*
X87166Y376680D01*
X86643Y377252D01*
X86107Y377812D01*
X85557Y378358D01*
X84994Y378890D01*
X84418Y379409D01*
X83830Y379913D01*
X83230Y380403D01*
X82617Y380878D01*
X82473Y380686D01*
X83081Y380215D01*
X83677Y379729D01*
X84261Y379228D01*
X84832Y378713D01*
X85391Y378185D01*
X85937Y377643D01*
X86469Y377088D01*
X86987Y376520D01*
X87492Y375939D01*
X87982Y375347D01*
X88457Y374742D01*
X88918Y374126D01*
X89363Y373499D01*
X89793Y372862D01*
X90207Y372214D01*
X90605Y371556D01*
X90987Y370888D01*
X91353Y370212D01*
X91702Y369526D01*
X92034Y368833D01*
X92349Y368131D01*
X92647Y367422D01*
X92927Y366706D01*
X93190Y365983D01*
X93435Y365254D01*
X93662Y364519D01*
X93871Y363779D01*
X94062Y363034D01*
X94234Y362285D01*
X94389Y361531D01*
X94524Y360774D01*
X94642Y360014D01*
X94740Y359252D01*
X94820Y358487D01*
X94881Y357720D01*
X94924Y356952D01*
X94948Y356183D01*
X94952Y355414D01*
X94939Y354646D01*
X94906Y353877D01*
X94854Y353110D01*
X94784Y352344D01*
X94695Y351580D01*
X94587Y350819D01*
X94461Y350060D01*
X94317Y349305D01*
X94153Y348553D01*
X93972Y347806D01*
X93772Y347063D01*
X93555Y346326D01*
X93319Y345593D01*
X93065Y344867D01*
X92794Y344148D01*
X92505Y343435D01*
X92199Y342729D01*
X91876Y342032D01*
X91536Y341342D01*
X91179Y340661D01*
X90805Y339989D01*
X90415Y339326D01*
X90009Y338672D01*
X89588Y338029D01*
X89150Y337397D01*
X88697Y336775D01*
X88230Y336165D01*
X87747Y335566D01*
X87250Y334979D01*
X86739Y334405D01*
X86214Y333843D01*
X85675Y333294D01*
X85123Y332758D01*
X84558Y332237D01*
X83981Y331729D01*
X83391Y331235D01*
X82789Y330756D01*
X82176Y330292D01*
X81552Y329843D01*
X80916Y329409D01*
X80271Y328991D01*
X79615Y328589D01*
X78950Y328203D01*
X78276Y327834D01*
X77592Y327481D01*
X76901Y327145D01*
X76201Y326825D01*
X75494Y326523D01*
X74779Y326239D01*
X74058Y325972D01*
X73330Y325723D01*
X72597Y325491D01*
X71858Y325278D01*
X71114Y325083D01*
X70366Y324906D01*
X69613Y324747D01*
X68857Y324607D01*
X68098Y324485D01*
X67336Y324382D01*
X66571Y324297D01*
X65805Y324232D01*
X65038Y324185D01*
X64269Y324156D01*
X63500Y324147D01*
X62731Y324156D01*
X61962Y324185D01*
X61195Y324232D01*
X60429Y324297D01*
X59664Y324382D01*
X58902Y324485D01*
X58143Y324607D01*
X57387Y324747D01*
X56634Y324906D01*
X55886Y325083D01*
X55142Y325278D01*
X54403Y325491D01*
X53670Y325723D01*
X52942Y325972D01*
X52221Y326239D01*
X51506Y326523D01*
X50799Y326825D01*
X50099Y327145D01*
X49408Y327481D01*
X48724Y327834D01*
X48050Y328203D01*
X47385Y328589D01*
X46729Y328991D01*
X46084Y329409D01*
X45448Y329843D01*
X44824Y330292D01*
X44211Y330756D01*
X43609Y331235D01*
X43019Y331729D01*
X42442Y332237D01*
X41877Y332758D01*
X41325Y333294D01*
X40786Y333843D01*
X40261Y334405D01*
X39750Y334979D01*
X39253Y335566D01*
X38770Y336165D01*
X38303Y336775D01*
X37850Y337397D01*
X37412Y338029D01*
X36991Y338672D01*
X36585Y339326D01*
X36195Y339989D01*
X35821Y340661D01*
X35464Y341342D01*
X35124Y342032D01*
X34801Y342729D01*
X34495Y343435D01*
X34206Y344148D01*
X33935Y344867D01*
X33681Y345593D01*
X33445Y346326D01*
X33228Y347063D01*
X33028Y347806D01*
X32847Y348553D01*
X32683Y349305D01*
X32539Y350060D01*
X32413Y350819D01*
X32305Y351580D01*
X32216Y352344D01*
X32146Y353110D01*
X32094Y353877D01*
X32061Y354646D01*
X32048Y355414D01*
X32052Y356183D01*
X32076Y356952D01*
X32119Y357720D01*
X32180Y358487D01*
X32260Y359252D01*
X32358Y360014D01*
X32476Y360774D01*
X32611Y361531D01*
X32766Y362285D01*
X32938Y363034D01*
X33129Y363779D01*
X33338Y364519D01*
X33565Y365254D01*
X33810Y365983D01*
X34073Y366706D01*
X34353Y367422D01*
X34651Y368131D01*
X34966Y368833D01*
X35298Y369526D01*
X35647Y370212D01*
X36013Y370888D01*
X36395Y371556D01*
X36793Y372214D01*
X37207Y372862D01*
X37637Y373499D01*
X38082Y374126D01*
X38543Y374742D01*
X39018Y375347D01*
X39508Y375939D01*
X40013Y376520D01*
X40531Y377088D01*
X41063Y377643D01*
X41609Y378185D01*
X42168Y378713D01*
X42739Y379228D01*
X43323Y379729D01*
X43919Y380215D01*
X44527Y380686D01*
X44671Y380494D01*
X44068Y380026D01*
X43476Y379544D01*
X42897Y379047D01*
X42330Y378536D01*
X41775Y378012D01*
X41234Y377474D01*
X40706Y376923D01*
X40191Y376360D01*
X39691Y375783D01*
X39204Y375195D01*
X38733Y374595D01*
X38276Y373984D01*
X37834Y373362D01*
X37407Y372729D01*
X36996Y372086D01*
X36601Y371433D01*
X36222Y370771D01*
X35859Y370099D01*
X35513Y369419D01*
X35183Y368731D01*
X34871Y368035D01*
X34575Y367331D01*
X34297Y366620D01*
X34036Y365903D01*
X33793Y365180D01*
X33568Y364450D01*
X33361Y363716D01*
X33171Y362977D01*
X33000Y362233D01*
X32847Y361485D01*
X32712Y360734D01*
X32596Y359980D01*
X32498Y359223D01*
X32419Y358464D01*
X32358Y357703D01*
X32316Y356941D01*
X32292Y356178D01*
X32288Y355415D01*
X32301Y354652D01*
X32334Y353890D01*
X32385Y353128D01*
X32455Y352368D01*
X32543Y351610D01*
X32650Y350855D01*
X32775Y350102D01*
X32919Y349352D01*
X33081Y348606D01*
X33261Y347865D01*
X33459Y347128D01*
X33675Y346396D01*
X33909Y345669D01*
X34161Y344949D01*
X34430Y344235D01*
X34716Y343527D01*
X35020Y342827D01*
X35341Y342135D01*
X35678Y341450D01*
X36033Y340774D01*
X36403Y340107D01*
X36790Y339449D01*
X37193Y338801D01*
X37612Y338163D01*
X38046Y337535D01*
X38495Y336918D01*
X38959Y336313D01*
X39438Y335718D01*
X39931Y335136D01*
X40439Y334566D01*
X40960Y334008D01*
X41494Y333464D01*
X42042Y332932D01*
X42603Y332415D01*
X43176Y331911D01*
X43761Y331421D01*
X44358Y330945D01*
X44967Y330485D01*
X45586Y330039D01*
X46217Y329609D01*
X46857Y329194D01*
X47508Y328795D01*
X48168Y328412D01*
X48837Y328045D01*
X49515Y327695D01*
X50202Y327362D01*
X50896Y327045D01*
X51598Y326745D01*
X52307Y326463D01*
X53023Y326198D01*
X53745Y325951D01*
X54473Y325721D01*
X55206Y325509D01*
X55944Y325315D01*
X56687Y325140D01*
X57433Y324982D01*
X58184Y324843D01*
X58937Y324722D01*
X59694Y324620D01*
X60452Y324536D01*
X61212Y324471D01*
X61974Y324424D01*
X62737Y324396D01*
X63500Y324387D01*
X64263Y324396D01*
X65026Y324424D01*
X65788Y324471D01*
X66548Y324536D01*
X67306Y324620D01*
X68063Y324722D01*
X68816Y324843D01*
X69567Y324982D01*
X70313Y325140D01*
X71056Y325315D01*
X71794Y325509D01*
X72527Y325721D01*
X73255Y325951D01*
X73977Y326198D01*
X74693Y326463D01*
X75402Y326745D01*
X76104Y327045D01*
X76798Y327362D01*
X77485Y327695D01*
X78163Y328045D01*
X78832Y328412D01*
X79492Y328795D01*
X80143Y329194D01*
X80783Y329609D01*
X81414Y330039D01*
X82033Y330485D01*
X82642Y330945D01*
X83239Y331421D01*
X83824Y331911D01*
X84397Y332415D01*
X84958Y332932D01*
X85506Y333464D01*
X86040Y334008D01*
X86561Y334566D01*
X87069Y335136D01*
X87562Y335718D01*
X88041Y336313D01*
X88505Y336918D01*
X88954Y337535D01*
X89388Y338163D01*
X89807Y338801D01*
X90210Y339449D01*
X90597Y340107D01*
X90967Y340774D01*
X91322Y341450D01*
X91659Y342135D01*
X91980Y342827D01*
X92284Y343527D01*
X92570Y344235D01*
X92839Y344949D01*
X93091Y345669D01*
X93325Y346396D01*
X93541Y347128D01*
X93739Y347865D01*
X93919Y348606D01*
X94081Y349352D01*
X94225Y350102D01*
X94350Y350855D01*
X94457Y351610D01*
X94545Y352368D01*
X94615Y353128D01*
X94666Y353890D01*
X94699Y354652D01*
X94712Y355415D01*
X94708Y356178D01*
X94684Y356941D01*
X94642Y357703D01*
X94581Y358464D01*
X94502Y359223D01*
X94404Y359980D01*
X94288Y360734D01*
X94153Y361485D01*
X94000Y362233D01*
X93829Y362977D01*
X93639Y363716D01*
X93432Y364450D01*
X93207Y365180D01*
X92964Y365903D01*
X92703Y366620D01*
X92425Y367331D01*
X92129Y368035D01*
X91817Y368731D01*
X91487Y369419D01*
X91141Y370099D01*
X90778Y370771D01*
X90399Y371433D01*
X90004Y372086D01*
X89593Y372729D01*
X89166Y373362D01*
X88724Y373984D01*
X88267Y374595D01*
X87796Y375195D01*
X87309Y375783D01*
X86809Y376360D01*
X86294Y376923D01*
X85766Y377474D01*
X85225Y378012D01*
X84670Y378536D01*
X84103Y379047D01*
X83524Y379544D01*
X82932Y380026D01*
X82329Y380494D01*
X82185Y380302D01*
X82784Y379838D01*
X83370Y379359D01*
X83945Y378866D01*
X84508Y378359D01*
X85058Y377839D01*
X85595Y377305D01*
X86120Y376759D01*
X86630Y376199D01*
X87127Y375628D01*
X87609Y375044D01*
X88077Y374449D01*
X88531Y373842D01*
X88969Y373225D01*
X89393Y372597D01*
X89801Y371959D01*
X90193Y371311D01*
X90569Y370653D01*
X90929Y369987D01*
X91272Y369312D01*
X91599Y368629D01*
X91909Y367938D01*
X92203Y367240D01*
X92479Y366535D01*
X92737Y365823D01*
X92978Y365105D01*
X93202Y364382D01*
X93408Y363653D01*
X93596Y362919D01*
X93766Y362181D01*
X93918Y361439D01*
X94051Y360694D01*
X94167Y359946D01*
X94264Y359195D01*
X94342Y358441D01*
X94403Y357686D01*
X94444Y356930D01*
X94468Y356173D01*
X94472Y355416D01*
X94459Y354659D01*
X94426Y353902D01*
X94376Y353147D01*
X94306Y352393D01*
X94219Y351640D01*
X94113Y350890D01*
X93989Y350143D01*
X93846Y349400D01*
X93685Y348660D01*
X93507Y347924D01*
X93310Y347192D01*
X93096Y346466D01*
X92863Y345745D01*
X92614Y345030D01*
X92347Y344322D01*
X92062Y343620D01*
X91761Y342925D01*
X91442Y342238D01*
X91107Y341559D01*
X90756Y340888D01*
X90388Y340226D01*
X90004Y339573D01*
X89604Y338930D01*
X89189Y338297D01*
X88758Y337674D01*
X88313Y337062D01*
X87852Y336461D01*
X87377Y335871D01*
X86887Y335293D01*
X86384Y334727D01*
X85867Y334174D01*
X85336Y333634D01*
X84793Y333107D01*
X84236Y332593D01*
X83668Y332093D01*
X83087Y331607D01*
X82494Y331135D01*
X81891Y330678D01*
X81276Y330236D01*
X80650Y329809D01*
X80015Y329397D01*
X79369Y329001D01*
X78714Y328621D01*
X78050Y328257D01*
X77377Y327910D01*
X76696Y327579D01*
X76007Y327264D01*
X75310Y326967D01*
X74607Y326687D01*
X73897Y326424D01*
X73180Y326179D01*
X72458Y325951D01*
X71730Y325741D01*
X70998Y325548D01*
X70261Y325374D01*
X69520Y325218D01*
X68775Y325080D01*
X68028Y324960D01*
X67277Y324858D01*
X66524Y324775D01*
X65770Y324710D01*
X65014Y324664D01*
X64257Y324636D01*
X63500Y324627D01*
X62743Y324636D01*
X61986Y324664D01*
X61230Y324710D01*
X60476Y324775D01*
X59723Y324858D01*
X58972Y324960D01*
X58225Y325080D01*
X57480Y325218D01*
X56739Y325374D01*
X56002Y325548D01*
X55270Y325741D01*
X54542Y325951D01*
X53820Y326179D01*
X53103Y326424D01*
X52393Y326687D01*
X51690Y326967D01*
X50993Y327264D01*
X50304Y327579D01*
X49623Y327910D01*
X48950Y328257D01*
X48286Y328621D01*
X47631Y329001D01*
X46985Y329397D01*
X46350Y329809D01*
X45724Y330236D01*
X45109Y330678D01*
X44506Y331135D01*
X43913Y331607D01*
X43332Y332093D01*
X42764Y332593D01*
X42207Y333107D01*
X41664Y333634D01*
X41133Y334174D01*
X40616Y334727D01*
X40113Y335293D01*
X39623Y335871D01*
X39148Y336461D01*
X38687Y337062D01*
X38242Y337674D01*
X37811Y338297D01*
X37396Y338930D01*
X36996Y339573D01*
X36612Y340226D01*
X36244Y340888D01*
X35893Y341559D01*
X35558Y342238D01*
X35239Y342925D01*
X34938Y343620D01*
X34653Y344322D01*
X34386Y345030D01*
X34137Y345745D01*
X33904Y346466D01*
X33690Y347192D01*
X33493Y347924D01*
X33315Y348660D01*
X33154Y349400D01*
X33011Y350143D01*
X32887Y350890D01*
X32781Y351640D01*
X32694Y352393D01*
X32624Y353147D01*
X32574Y353902D01*
X32541Y354659D01*
X32528Y355416D01*
X32532Y356173D01*
X32556Y356930D01*
X32597Y357686D01*
X32658Y358441D01*
X32736Y359195D01*
X32833Y359946D01*
X32949Y360694D01*
X33082Y361439D01*
X33234Y362181D01*
X33404Y362919D01*
X33592Y363653D01*
X33798Y364382D01*
X34022Y365105D01*
X34263Y365823D01*
X34521Y366535D01*
X34797Y367240D01*
X35091Y367938D01*
X35401Y368629D01*
X35728Y369312D01*
X36071Y369987D01*
X36431Y370653D01*
X36807Y371311D01*
X37199Y371959D01*
X37607Y372597D01*
X38031Y373225D01*
X38469Y373842D01*
X38923Y374449D01*
X39391Y375044D01*
X39873Y375628D01*
X40370Y376199D01*
X40880Y376759D01*
X41405Y377305D01*
X41942Y377839D01*
X42492Y378359D01*
X43055Y378866D01*
X43630Y379359D01*
X44216Y379838D01*
X44815Y380302D01*
X44959Y380110D01*
X44365Y379649D01*
X43783Y379174D01*
X43212Y378685D01*
X42654Y378182D01*
X42108Y377666D01*
X41575Y377136D01*
X41055Y376594D01*
X40549Y376039D01*
X40056Y375472D01*
X39577Y374893D01*
X39112Y374302D01*
X38662Y373700D01*
X38227Y373087D01*
X37807Y372464D01*
X37403Y371831D01*
X37014Y371188D01*
X36641Y370536D01*
X36283Y369875D01*
X35943Y369205D01*
X35618Y368528D01*
X35310Y367842D01*
X35020Y367149D01*
X34746Y366449D01*
X34489Y365743D01*
X34250Y365031D01*
X34028Y364313D01*
X33824Y363590D01*
X33637Y362862D01*
X33469Y362130D01*
X33318Y361393D01*
X33185Y360654D01*
X33071Y359911D01*
X32975Y359166D01*
X32897Y358419D01*
X32837Y357670D01*
X32795Y356919D01*
X32772Y356168D01*
X32768Y355417D01*
X32781Y354666D01*
X32813Y353915D01*
X32864Y353165D01*
X32932Y352417D01*
X33019Y351670D01*
X33124Y350926D01*
X33248Y350185D01*
X33389Y349447D01*
X33549Y348713D01*
X33726Y347983D01*
X33921Y347257D01*
X34134Y346536D01*
X34364Y345821D01*
X34612Y345112D01*
X34877Y344409D01*
X35159Y343712D01*
X35458Y343023D01*
X35774Y342341D01*
X36107Y341667D01*
X36455Y341002D01*
X36820Y340345D01*
X37201Y339697D01*
X37598Y339059D01*
X38010Y338431D01*
X38438Y337813D01*
X38880Y337205D01*
X39337Y336609D01*
X39809Y336024D01*
X40294Y335450D01*
X40794Y334889D01*
X41307Y334340D01*
X41833Y333804D01*
X42373Y333281D01*
X42925Y332771D01*
X43489Y332275D01*
X44065Y331792D01*
X44653Y331324D01*
X45252Y330871D01*
X45862Y330432D01*
X46483Y330008D01*
X47114Y329600D01*
X47754Y329207D01*
X48404Y328830D01*
X49063Y328469D01*
X49731Y328124D01*
X50407Y327796D01*
X51090Y327484D01*
X51781Y327189D01*
X52479Y326911D01*
X53184Y326650D01*
X53895Y326407D01*
X54612Y326180D01*
X55333Y325972D01*
X56060Y325781D01*
X56791Y325608D01*
X57527Y325453D01*
X58266Y325316D01*
X59008Y325197D01*
X59752Y325096D01*
X60499Y325014D01*
X61248Y324950D01*
X61998Y324904D01*
X62749Y324876D01*
X63500Y324867D01*
X64251Y324876D01*
X65002Y324904D01*
X65752Y324950D01*
X66501Y325014D01*
X67248Y325096D01*
X67992Y325197D01*
X68734Y325316D01*
X69473Y325453D01*
X70209Y325608D01*
X70940Y325781D01*
X71667Y325972D01*
X72388Y326180D01*
X73105Y326407D01*
X73816Y326650D01*
X74521Y326911D01*
X75219Y327189D01*
X75910Y327484D01*
X76593Y327796D01*
X77269Y328124D01*
X77937Y328469D01*
X78596Y328830D01*
X79246Y329207D01*
X79886Y329600D01*
X80517Y330008D01*
X81138Y330432D01*
X81748Y330871D01*
X82347Y331324D01*
X82935Y331792D01*
X83511Y332275D01*
X84075Y332771D01*
X84627Y333281D01*
X85167Y333804D01*
X85693Y334340D01*
X86206Y334889D01*
X86706Y335450D01*
X87191Y336024D01*
X87663Y336609D01*
X88120Y337205D01*
X88562Y337813D01*
X88990Y338431D01*
X89402Y339059D01*
X89799Y339697D01*
X90180Y340345D01*
X90545Y341002D01*
X90893Y341667D01*
X91226Y342341D01*
X91542Y343023D01*
X91841Y343712D01*
X92123Y344409D01*
X92388Y345112D01*
X92636Y345821D01*
X92866Y346536D01*
X93079Y347257D01*
X93274Y347983D01*
X93451Y348713D01*
X93611Y349447D01*
X93752Y350185D01*
X93876Y350926D01*
X93981Y351670D01*
X94068Y352417D01*
X94136Y353165D01*
X94187Y353915D01*
X94219Y354666D01*
X94232Y355417D01*
X94228Y356168D01*
X94205Y356919D01*
X94163Y357670D01*
X94103Y358419D01*
X94025Y359166D01*
X93929Y359911D01*
X93815Y360654D01*
X93682Y361393D01*
X93531Y362130D01*
X93363Y362862D01*
X93176Y363590D01*
X92972Y364313D01*
X92750Y365031D01*
X92511Y365743D01*
X92254Y366449D01*
X91980Y367149D01*
X91690Y367842D01*
X91382Y368528D01*
X91057Y369205D01*
X90717Y369875D01*
X90359Y370536D01*
X89986Y371188D01*
X89597Y371831D01*
X89193Y372464D01*
X88773Y373087D01*
X88338Y373700D01*
X87888Y374302D01*
X87423Y374893D01*
X86944Y375472D01*
X86451Y376039D01*
X85945Y376594D01*
X85425Y377136D01*
X84892Y377666D01*
X84346Y378182D01*
X83788Y378685D01*
X83217Y379174D01*
X82635Y379649D01*
X82041Y380110D01*
D12*
X38100Y355600D02*
X38108Y356223D01*
X38131Y356846D01*
X38169Y357469D01*
X38222Y358090D01*
X38291Y358709D01*
X38375Y359327D01*
X38474Y359942D01*
X38588Y360555D01*
X38717Y361165D01*
X38861Y361772D01*
X39020Y362375D01*
X39194Y362973D01*
X39382Y363568D01*
X39585Y364157D01*
X39802Y364741D01*
X40033Y365320D01*
X40279Y365893D01*
X40539Y366460D01*
X40812Y367020D01*
X41099Y367573D01*
X41400Y368120D01*
X41714Y368658D01*
X42041Y369189D01*
X42381Y369711D01*
X42733Y370226D01*
X43099Y370731D01*
X43476Y371227D01*
X43866Y371714D01*
X44267Y372191D01*
X44680Y372658D01*
X45104Y373114D01*
X45539Y373561D01*
X45986Y373996D01*
X46442Y374420D01*
X46909Y374833D01*
X47386Y375234D01*
X47873Y375624D01*
X48369Y376001D01*
X48874Y376367D01*
X49389Y376719D01*
X49911Y377059D01*
X50442Y377386D01*
X50980Y377700D01*
X51527Y378001D01*
X52080Y378288D01*
X52640Y378561D01*
X53207Y378821D01*
X53780Y379067D01*
X54359Y379298D01*
X54943Y379515D01*
X55532Y379718D01*
X56127Y379906D01*
X56725Y380080D01*
X57328Y380239D01*
X57935Y380383D01*
X58545Y380512D01*
X59158Y380626D01*
X59773Y380725D01*
X60391Y380809D01*
X61010Y380878D01*
X61631Y380931D01*
X62254Y380969D01*
X62877Y380992D01*
X63500Y381000D01*
X64123Y380992D01*
X64746Y380969D01*
X65369Y380931D01*
X65990Y380878D01*
X66609Y380809D01*
X67227Y380725D01*
X67842Y380626D01*
X68455Y380512D01*
X69065Y380383D01*
X69672Y380239D01*
X70275Y380080D01*
X70873Y379906D01*
X71468Y379718D01*
X72057Y379515D01*
X72641Y379298D01*
X73220Y379067D01*
X73793Y378821D01*
X74360Y378561D01*
X74920Y378288D01*
X75473Y378001D01*
X76020Y377700D01*
X76558Y377386D01*
X77089Y377059D01*
X77611Y376719D01*
X78126Y376367D01*
X78631Y376001D01*
X79127Y375624D01*
X79614Y375234D01*
X80091Y374833D01*
X80558Y374420D01*
X81014Y373996D01*
X81461Y373561D01*
X81896Y373114D01*
X82320Y372658D01*
X82733Y372191D01*
X83134Y371714D01*
X83524Y371227D01*
X83901Y370731D01*
X84267Y370226D01*
X84619Y369711D01*
X84959Y369189D01*
X85286Y368658D01*
X85600Y368120D01*
X85901Y367573D01*
X86188Y367020D01*
X86461Y366460D01*
X86721Y365893D01*
X86967Y365320D01*
X87198Y364741D01*
X87415Y364157D01*
X87618Y363568D01*
X87806Y362973D01*
X87980Y362375D01*
X88139Y361772D01*
X88283Y361165D01*
X88412Y360555D01*
X88526Y359942D01*
X88625Y359327D01*
X88709Y358709D01*
X88778Y358090D01*
X88831Y357469D01*
X88869Y356846D01*
X88892Y356223D01*
X88900Y355600D01*
X88892Y354977D01*
X88869Y354354D01*
X88831Y353731D01*
X88778Y353110D01*
X88709Y352491D01*
X88625Y351873D01*
X88526Y351258D01*
X88412Y350645D01*
X88283Y350035D01*
X88139Y349428D01*
X87980Y348825D01*
X87806Y348227D01*
X87618Y347632D01*
X87415Y347043D01*
X87198Y346459D01*
X86967Y345880D01*
X86721Y345307D01*
X86461Y344740D01*
X86188Y344180D01*
X85901Y343627D01*
X85600Y343080D01*
X85286Y342542D01*
X84959Y342011D01*
X84619Y341489D01*
X84267Y340974D01*
X83901Y340469D01*
X83524Y339973D01*
X83134Y339486D01*
X82733Y339009D01*
X82320Y338542D01*
X81896Y338086D01*
X81461Y337639D01*
X81014Y337204D01*
X80558Y336780D01*
X80091Y336367D01*
X79614Y335966D01*
X79127Y335576D01*
X78631Y335199D01*
X78126Y334833D01*
X77611Y334481D01*
X77089Y334141D01*
X76558Y333814D01*
X76020Y333500D01*
X75473Y333199D01*
X74920Y332912D01*
X74360Y332639D01*
X73793Y332379D01*
X73220Y332133D01*
X72641Y331902D01*
X72057Y331685D01*
X71468Y331482D01*
X70873Y331294D01*
X70275Y331120D01*
X69672Y330961D01*
X69065Y330817D01*
X68455Y330688D01*
X67842Y330574D01*
X67227Y330475D01*
X66609Y330391D01*
X65990Y330322D01*
X65369Y330269D01*
X64746Y330231D01*
X64123Y330208D01*
X63500Y330200D01*
X62877Y330208D01*
X62254Y330231D01*
X61631Y330269D01*
X61010Y330322D01*
X60391Y330391D01*
X59773Y330475D01*
X59158Y330574D01*
X58545Y330688D01*
X57935Y330817D01*
X57328Y330961D01*
X56725Y331120D01*
X56127Y331294D01*
X55532Y331482D01*
X54943Y331685D01*
X54359Y331902D01*
X53780Y332133D01*
X53207Y332379D01*
X52640Y332639D01*
X52080Y332912D01*
X51527Y333199D01*
X50980Y333500D01*
X50442Y333814D01*
X49911Y334141D01*
X49389Y334481D01*
X48874Y334833D01*
X48369Y335199D01*
X47873Y335576D01*
X47386Y335966D01*
X46909Y336367D01*
X46442Y336780D01*
X45986Y337204D01*
X45539Y337639D01*
X45104Y338086D01*
X44680Y338542D01*
X44267Y339009D01*
X43866Y339486D01*
X43476Y339973D01*
X43099Y340469D01*
X42733Y340974D01*
X42381Y341489D01*
X42041Y342011D01*
X41714Y342542D01*
X41400Y343080D01*
X41099Y343627D01*
X40812Y344180D01*
X40539Y344740D01*
X40279Y345307D01*
X40033Y345880D01*
X39802Y346459D01*
X39585Y347043D01*
X39382Y347632D01*
X39194Y348227D01*
X39020Y348825D01*
X38861Y349428D01*
X38717Y350035D01*
X38588Y350645D01*
X38474Y351258D01*
X38375Y351873D01*
X38291Y352491D01*
X38222Y353110D01*
X38169Y353731D01*
X38131Y354354D01*
X38108Y354977D01*
X38100Y355600D01*
D11*
X28956Y351425D02*
X24130Y351425D01*
X24130Y352765D01*
X24132Y352835D01*
X24137Y352905D01*
X24147Y352975D01*
X24159Y353044D01*
X24176Y353112D01*
X24196Y353179D01*
X24219Y353246D01*
X24246Y353310D01*
X24276Y353374D01*
X24310Y353436D01*
X24346Y353495D01*
X24386Y353553D01*
X24429Y353609D01*
X24474Y353662D01*
X24523Y353713D01*
X24574Y353762D01*
X24627Y353807D01*
X24683Y353850D01*
X24741Y353890D01*
X24801Y353926D01*
X24862Y353960D01*
X24926Y353990D01*
X24990Y354017D01*
X25057Y354040D01*
X25124Y354060D01*
X25192Y354077D01*
X25261Y354089D01*
X25331Y354099D01*
X25401Y354104D01*
X25471Y354106D01*
X27615Y354106D01*
X27685Y354104D01*
X27755Y354099D01*
X27825Y354089D01*
X27894Y354077D01*
X27962Y354060D01*
X28029Y354040D01*
X28096Y354017D01*
X28160Y353990D01*
X28224Y353960D01*
X28286Y353926D01*
X28345Y353890D01*
X28403Y353850D01*
X28459Y353807D01*
X28512Y353762D01*
X28563Y353713D01*
X28612Y353662D01*
X28657Y353609D01*
X28700Y353553D01*
X28740Y353495D01*
X28776Y353435D01*
X28810Y353374D01*
X28840Y353310D01*
X28867Y353246D01*
X28890Y353179D01*
X28910Y353112D01*
X28927Y353044D01*
X28939Y352975D01*
X28949Y352905D01*
X28954Y352835D01*
X28956Y352765D01*
X28956Y351425D01*
X24130Y358569D02*
X24132Y358637D01*
X24138Y358704D01*
X24147Y358771D01*
X24160Y358838D01*
X24177Y358903D01*
X24198Y358968D01*
X24222Y359031D01*
X24250Y359093D01*
X24281Y359153D01*
X24315Y359211D01*
X24353Y359267D01*
X24393Y359322D01*
X24437Y359373D01*
X24484Y359422D01*
X24533Y359469D01*
X24584Y359513D01*
X24639Y359553D01*
X24695Y359591D01*
X24753Y359625D01*
X24813Y359656D01*
X24875Y359684D01*
X24938Y359708D01*
X25003Y359729D01*
X25068Y359746D01*
X25135Y359759D01*
X25202Y359768D01*
X25269Y359774D01*
X25337Y359776D01*
X24130Y358569D02*
X24132Y358491D01*
X24138Y358413D01*
X24148Y358336D01*
X24161Y358259D01*
X24179Y358183D01*
X24200Y358108D01*
X24225Y358034D01*
X24254Y357962D01*
X24286Y357891D01*
X24322Y357822D01*
X24361Y357754D01*
X24404Y357689D01*
X24450Y357626D01*
X24499Y357565D01*
X24551Y357507D01*
X24606Y357452D01*
X24663Y357399D01*
X24723Y357350D01*
X24786Y357303D01*
X24851Y357260D01*
X24917Y357220D01*
X24986Y357183D01*
X25057Y357150D01*
X25129Y357120D01*
X25203Y357094D01*
X26275Y359373D02*
X26226Y359422D01*
X26174Y359469D01*
X26119Y359512D01*
X26062Y359553D01*
X26003Y359591D01*
X25942Y359625D01*
X25879Y359656D01*
X25815Y359684D01*
X25749Y359708D01*
X25683Y359728D01*
X25615Y359745D01*
X25546Y359758D01*
X25477Y359767D01*
X25407Y359773D01*
X25337Y359775D01*
X26275Y359373D02*
X28956Y357094D01*
X28956Y359775D01*
D10*
X148590Y495300D02*
X207010Y495300D01*
X207010Y596900D02*
X187960Y596900D01*
X167640Y596900D02*
X148590Y596900D01*
X167640Y596900D02*
X167643Y596653D01*
X167652Y596405D01*
X167667Y596158D01*
X167688Y595912D01*
X167715Y595666D01*
X167748Y595421D01*
X167787Y595176D01*
X167832Y594933D01*
X167883Y594691D01*
X167940Y594450D01*
X168002Y594211D01*
X168071Y593973D01*
X168145Y593737D01*
X168225Y593503D01*
X168310Y593271D01*
X168402Y593041D01*
X168498Y592813D01*
X168601Y592588D01*
X168708Y592365D01*
X168822Y592145D01*
X168940Y591928D01*
X169064Y591713D01*
X169193Y591502D01*
X169327Y591294D01*
X169466Y591089D01*
X169610Y590888D01*
X169758Y590690D01*
X169912Y590496D01*
X170070Y590306D01*
X170233Y590120D01*
X170400Y589938D01*
X170572Y589760D01*
X170748Y589586D01*
X170928Y589416D01*
X171113Y589251D01*
X171301Y589091D01*
X171493Y588935D01*
X171689Y588783D01*
X171888Y588637D01*
X172091Y588495D01*
X172298Y588359D01*
X172507Y588227D01*
X172720Y588101D01*
X172936Y587980D01*
X173154Y587864D01*
X173376Y587754D01*
X173600Y587649D01*
X173826Y587549D01*
X174055Y587455D01*
X174286Y587367D01*
X174520Y587284D01*
X174755Y587207D01*
X174992Y587136D01*
X175230Y587070D01*
X175470Y587011D01*
X175712Y586957D01*
X175955Y586909D01*
X176198Y586867D01*
X176443Y586831D01*
X176689Y586801D01*
X176935Y586777D01*
X177182Y586759D01*
X177429Y586747D01*
X177676Y586741D01*
X177924Y586741D01*
X178171Y586747D01*
X178418Y586759D01*
X178665Y586777D01*
X178911Y586801D01*
X179157Y586831D01*
X179402Y586867D01*
X179645Y586909D01*
X179888Y586957D01*
X180130Y587011D01*
X180370Y587070D01*
X180608Y587136D01*
X180845Y587207D01*
X181080Y587284D01*
X181314Y587367D01*
X181545Y587455D01*
X181774Y587549D01*
X182000Y587649D01*
X182224Y587754D01*
X182446Y587864D01*
X182664Y587980D01*
X182880Y588101D01*
X183093Y588227D01*
X183302Y588359D01*
X183509Y588495D01*
X183712Y588637D01*
X183911Y588783D01*
X184107Y588935D01*
X184299Y589091D01*
X184487Y589251D01*
X184672Y589416D01*
X184852Y589586D01*
X185028Y589760D01*
X185200Y589938D01*
X185367Y590120D01*
X185530Y590306D01*
X185688Y590496D01*
X185842Y590690D01*
X185990Y590888D01*
X186134Y591089D01*
X186273Y591294D01*
X186407Y591502D01*
X186536Y591713D01*
X186660Y591928D01*
X186778Y592145D01*
X186892Y592365D01*
X186999Y592588D01*
X187102Y592813D01*
X187198Y593041D01*
X187290Y593271D01*
X187375Y593503D01*
X187455Y593737D01*
X187529Y593973D01*
X187598Y594211D01*
X187660Y594450D01*
X187717Y594691D01*
X187768Y594933D01*
X187813Y595176D01*
X187852Y595421D01*
X187885Y595666D01*
X187912Y595912D01*
X187933Y596158D01*
X187948Y596405D01*
X187957Y596653D01*
X187960Y596900D01*
X207010Y596900D02*
X207010Y495300D01*
X148590Y495300D02*
X148590Y596900D01*
D11*
X172917Y603885D02*
X172917Y608711D01*
X172381Y603885D02*
X173454Y603885D01*
X173454Y608711D02*
X172381Y608711D01*
X177010Y603885D02*
X178082Y603885D01*
X177010Y603885D02*
X176945Y603887D01*
X176881Y603893D01*
X176817Y603903D01*
X176753Y603916D01*
X176691Y603934D01*
X176630Y603955D01*
X176570Y603979D01*
X176512Y604008D01*
X176455Y604040D01*
X176401Y604075D01*
X176349Y604113D01*
X176299Y604155D01*
X176252Y604199D01*
X176208Y604246D01*
X176166Y604296D01*
X176128Y604348D01*
X176093Y604402D01*
X176061Y604459D01*
X176032Y604517D01*
X176008Y604577D01*
X175987Y604638D01*
X175969Y604700D01*
X175956Y604764D01*
X175946Y604828D01*
X175940Y604892D01*
X175938Y604957D01*
X175937Y604957D02*
X175937Y607639D01*
X175938Y607639D02*
X175940Y607704D01*
X175946Y607768D01*
X175956Y607832D01*
X175969Y607896D01*
X175987Y607958D01*
X176008Y608019D01*
X176032Y608079D01*
X176061Y608137D01*
X176093Y608194D01*
X176128Y608248D01*
X176166Y608300D01*
X176208Y608350D01*
X176252Y608397D01*
X176299Y608441D01*
X176349Y608483D01*
X176401Y608521D01*
X176455Y608556D01*
X176512Y608588D01*
X176570Y608617D01*
X176630Y608641D01*
X176691Y608662D01*
X176753Y608680D01*
X176817Y608693D01*
X176881Y608703D01*
X176945Y608709D01*
X177010Y608711D01*
X178082Y608711D01*
X180538Y607639D02*
X181878Y608711D01*
X181878Y603885D01*
X180538Y603885D02*
X183219Y603885D01*
D10*
X44450Y76200D02*
X31750Y76200D01*
X31750Y101600D02*
X44450Y101600D01*
D11*
X16073Y78444D02*
X12319Y78444D01*
X16073Y78443D02*
X16138Y78441D01*
X16202Y78435D01*
X16266Y78425D01*
X16330Y78412D01*
X16392Y78394D01*
X16453Y78373D01*
X16513Y78349D01*
X16571Y78320D01*
X16628Y78288D01*
X16682Y78253D01*
X16734Y78215D01*
X16784Y78173D01*
X16831Y78129D01*
X16875Y78082D01*
X16917Y78032D01*
X16955Y77980D01*
X16990Y77926D01*
X17022Y77869D01*
X17051Y77811D01*
X17075Y77751D01*
X17096Y77690D01*
X17114Y77628D01*
X17127Y77564D01*
X17137Y77500D01*
X17143Y77436D01*
X17145Y77371D01*
X17145Y76835D01*
X13391Y81392D02*
X12319Y82732D01*
X17145Y82732D01*
X17145Y81392D02*
X17145Y84073D01*
D10*
X31750Y50800D02*
X44450Y50800D01*
X44450Y25400D02*
X31750Y25400D01*
D11*
X59055Y44536D02*
X62809Y44536D01*
X62874Y44534D01*
X62938Y44528D01*
X63002Y44518D01*
X63066Y44505D01*
X63128Y44487D01*
X63189Y44466D01*
X63249Y44442D01*
X63307Y44413D01*
X63364Y44381D01*
X63418Y44346D01*
X63470Y44308D01*
X63520Y44266D01*
X63567Y44222D01*
X63611Y44175D01*
X63653Y44125D01*
X63691Y44073D01*
X63726Y44019D01*
X63758Y43962D01*
X63787Y43904D01*
X63811Y43844D01*
X63832Y43783D01*
X63850Y43721D01*
X63863Y43657D01*
X63873Y43593D01*
X63879Y43529D01*
X63881Y43464D01*
X63881Y42927D01*
X59055Y48958D02*
X59057Y49026D01*
X59063Y49093D01*
X59072Y49160D01*
X59085Y49227D01*
X59102Y49292D01*
X59123Y49357D01*
X59147Y49420D01*
X59175Y49482D01*
X59206Y49542D01*
X59240Y49600D01*
X59278Y49656D01*
X59318Y49711D01*
X59362Y49762D01*
X59409Y49811D01*
X59458Y49858D01*
X59509Y49902D01*
X59564Y49942D01*
X59620Y49980D01*
X59678Y50014D01*
X59738Y50045D01*
X59800Y50073D01*
X59863Y50097D01*
X59928Y50118D01*
X59993Y50135D01*
X60060Y50148D01*
X60127Y50157D01*
X60194Y50163D01*
X60262Y50165D01*
X59055Y48958D02*
X59057Y48880D01*
X59063Y48802D01*
X59073Y48725D01*
X59086Y48648D01*
X59104Y48572D01*
X59125Y48497D01*
X59150Y48423D01*
X59179Y48351D01*
X59211Y48280D01*
X59247Y48211D01*
X59286Y48143D01*
X59329Y48078D01*
X59375Y48015D01*
X59424Y47954D01*
X59476Y47896D01*
X59531Y47841D01*
X59588Y47788D01*
X59648Y47739D01*
X59711Y47692D01*
X59776Y47649D01*
X59842Y47609D01*
X59911Y47572D01*
X59982Y47539D01*
X60054Y47509D01*
X60128Y47483D01*
X61200Y49763D02*
X61151Y49812D01*
X61099Y49859D01*
X61044Y49902D01*
X60987Y49943D01*
X60928Y49981D01*
X60867Y50015D01*
X60804Y50046D01*
X60740Y50074D01*
X60674Y50098D01*
X60608Y50118D01*
X60540Y50135D01*
X60471Y50148D01*
X60402Y50157D01*
X60332Y50163D01*
X60262Y50165D01*
X61200Y49763D02*
X63881Y47484D01*
X63881Y50165D01*
D10*
X44450Y546100D02*
X31750Y546100D01*
X31750Y571500D02*
X44450Y571500D01*
D11*
X16073Y548344D02*
X12319Y548344D01*
X16073Y548343D02*
X16138Y548341D01*
X16202Y548335D01*
X16266Y548325D01*
X16330Y548312D01*
X16392Y548294D01*
X16453Y548273D01*
X16513Y548249D01*
X16571Y548220D01*
X16628Y548188D01*
X16682Y548153D01*
X16734Y548115D01*
X16784Y548073D01*
X16831Y548029D01*
X16875Y547982D01*
X16917Y547932D01*
X16955Y547880D01*
X16990Y547826D01*
X17022Y547769D01*
X17051Y547711D01*
X17075Y547651D01*
X17096Y547590D01*
X17114Y547528D01*
X17127Y547464D01*
X17137Y547400D01*
X17143Y547336D01*
X17145Y547271D01*
X17145Y546735D01*
X17145Y551292D02*
X17145Y552632D01*
X17143Y552703D01*
X17137Y552775D01*
X17128Y552845D01*
X17115Y552915D01*
X17098Y552985D01*
X17077Y553053D01*
X17053Y553120D01*
X17025Y553186D01*
X16994Y553250D01*
X16959Y553313D01*
X16921Y553373D01*
X16880Y553432D01*
X16836Y553488D01*
X16789Y553542D01*
X16740Y553593D01*
X16687Y553641D01*
X16632Y553687D01*
X16575Y553729D01*
X16515Y553769D01*
X16454Y553805D01*
X16390Y553838D01*
X16325Y553867D01*
X16259Y553893D01*
X16191Y553916D01*
X16122Y553935D01*
X16052Y553950D01*
X15982Y553961D01*
X15911Y553969D01*
X15840Y553973D01*
X15768Y553973D01*
X15697Y553969D01*
X15626Y553961D01*
X15556Y553950D01*
X15486Y553935D01*
X15417Y553916D01*
X15349Y553893D01*
X15283Y553867D01*
X15218Y553838D01*
X15154Y553805D01*
X15093Y553769D01*
X15033Y553729D01*
X14976Y553687D01*
X14921Y553641D01*
X14868Y553593D01*
X14819Y553542D01*
X14772Y553488D01*
X14728Y553432D01*
X14687Y553373D01*
X14649Y553313D01*
X14614Y553250D01*
X14583Y553186D01*
X14555Y553120D01*
X14531Y553053D01*
X14510Y552985D01*
X14493Y552915D01*
X14480Y552845D01*
X14471Y552775D01*
X14465Y552703D01*
X14463Y552632D01*
X12319Y552900D02*
X12319Y551292D01*
X12319Y552900D02*
X12321Y552965D01*
X12327Y553029D01*
X12337Y553093D01*
X12350Y553157D01*
X12368Y553219D01*
X12389Y553280D01*
X12413Y553340D01*
X12442Y553398D01*
X12474Y553455D01*
X12509Y553509D01*
X12547Y553561D01*
X12589Y553611D01*
X12633Y553658D01*
X12680Y553702D01*
X12730Y553744D01*
X12782Y553782D01*
X12836Y553817D01*
X12893Y553849D01*
X12951Y553878D01*
X13011Y553902D01*
X13072Y553923D01*
X13134Y553941D01*
X13198Y553954D01*
X13262Y553964D01*
X13326Y553970D01*
X13391Y553972D01*
X13456Y553970D01*
X13520Y553964D01*
X13584Y553954D01*
X13648Y553941D01*
X13710Y553923D01*
X13771Y553902D01*
X13831Y553878D01*
X13889Y553849D01*
X13946Y553817D01*
X14000Y553782D01*
X14052Y553744D01*
X14102Y553702D01*
X14149Y553658D01*
X14193Y553611D01*
X14235Y553561D01*
X14273Y553509D01*
X14308Y553455D01*
X14340Y553398D01*
X14369Y553340D01*
X14393Y553280D01*
X14414Y553219D01*
X14432Y553157D01*
X14445Y553093D01*
X14455Y553029D01*
X14461Y552965D01*
X14463Y552900D01*
X14464Y552900D02*
X14464Y551828D01*
D10*
X31750Y495300D02*
X44450Y495300D01*
X44450Y520700D02*
X31750Y520700D01*
D11*
X16073Y497544D02*
X12319Y497544D01*
X16073Y497543D02*
X16138Y497541D01*
X16202Y497535D01*
X16266Y497525D01*
X16330Y497512D01*
X16392Y497494D01*
X16453Y497473D01*
X16513Y497449D01*
X16571Y497420D01*
X16628Y497388D01*
X16682Y497353D01*
X16734Y497315D01*
X16784Y497273D01*
X16831Y497229D01*
X16875Y497182D01*
X16917Y497132D01*
X16955Y497080D01*
X16990Y497026D01*
X17022Y496969D01*
X17051Y496911D01*
X17075Y496851D01*
X17096Y496790D01*
X17114Y496728D01*
X17127Y496664D01*
X17137Y496600D01*
X17143Y496536D01*
X17145Y496471D01*
X17145Y495935D01*
X16073Y500492D02*
X12319Y501564D01*
X16073Y500492D02*
X16073Y503173D01*
X17145Y502368D02*
X15000Y502368D01*
D10*
X317500Y706120D02*
X330200Y706120D01*
X330200Y629920D02*
X317500Y629920D01*
D11*
X344805Y699856D02*
X348559Y699856D01*
X348624Y699854D01*
X348688Y699848D01*
X348752Y699838D01*
X348816Y699825D01*
X348878Y699807D01*
X348939Y699786D01*
X348999Y699762D01*
X349057Y699733D01*
X349114Y699701D01*
X349168Y699666D01*
X349220Y699628D01*
X349270Y699586D01*
X349317Y699542D01*
X349361Y699495D01*
X349403Y699445D01*
X349441Y699393D01*
X349476Y699339D01*
X349508Y699282D01*
X349537Y699224D01*
X349561Y699164D01*
X349582Y699103D01*
X349600Y699041D01*
X349613Y698977D01*
X349623Y698913D01*
X349629Y698849D01*
X349631Y698784D01*
X349631Y698247D01*
X349631Y702804D02*
X349631Y704413D01*
X349629Y704478D01*
X349623Y704542D01*
X349613Y704606D01*
X349600Y704670D01*
X349582Y704732D01*
X349561Y704793D01*
X349537Y704853D01*
X349508Y704911D01*
X349476Y704968D01*
X349441Y705022D01*
X349403Y705074D01*
X349361Y705124D01*
X349317Y705171D01*
X349270Y705215D01*
X349220Y705257D01*
X349168Y705295D01*
X349114Y705330D01*
X349057Y705362D01*
X348999Y705391D01*
X348939Y705415D01*
X348878Y705436D01*
X348816Y705454D01*
X348752Y705467D01*
X348688Y705477D01*
X348624Y705483D01*
X348559Y705485D01*
X348022Y705485D01*
X347957Y705483D01*
X347893Y705477D01*
X347829Y705467D01*
X347765Y705454D01*
X347703Y705436D01*
X347642Y705415D01*
X347582Y705391D01*
X347524Y705362D01*
X347467Y705330D01*
X347413Y705295D01*
X347361Y705257D01*
X347311Y705215D01*
X347264Y705171D01*
X347220Y705124D01*
X347178Y705074D01*
X347140Y705022D01*
X347105Y704968D01*
X347073Y704911D01*
X347044Y704853D01*
X347020Y704793D01*
X346999Y704732D01*
X346981Y704670D01*
X346968Y704606D01*
X346958Y704542D01*
X346952Y704478D01*
X346950Y704413D01*
X346950Y702804D01*
X344805Y702804D01*
X344805Y705485D01*
D12*
X331216Y265176D02*
X331216Y140208D01*
X331216Y265176D02*
X38608Y265176D01*
X38608Y140208D01*
X331216Y140208D01*
X63500Y215138D02*
X63500Y223774D01*
D16*
X83566Y215138D02*
X83566Y189992D01*
X43434Y189992D02*
X43434Y215138D01*
X63500Y215138D01*
X78486Y215138D01*
X48514Y189992D02*
X43434Y189992D01*
D12*
X48514Y189992D02*
X78486Y215138D01*
D16*
X83566Y215138D01*
X83566Y189992D02*
X63500Y189992D01*
D12*
X63500Y182626D01*
D16*
X63500Y189992D02*
X48514Y189992D01*
D12*
X266700Y222250D02*
X266700Y224790D01*
D16*
X257302Y212852D02*
X254000Y209550D01*
D12*
X266700Y184150D02*
X266700Y181610D01*
X266700Y184150D02*
X257302Y193802D01*
X215900Y193802D01*
D16*
X254000Y196850D02*
X257302Y193802D01*
D12*
X215900Y193802D02*
X215900Y182880D01*
X276352Y193802D02*
X317500Y193802D01*
X317500Y182880D01*
X257302Y212852D02*
X215900Y212852D01*
D16*
X257302Y212852D02*
X266700Y222250D01*
D12*
X215900Y223012D02*
X215900Y212852D01*
X276352Y212852D02*
X317500Y212852D01*
X317500Y223012D01*
D17*
X338455Y141097D02*
X354457Y141097D01*
X348234Y141097D02*
X338455Y149987D01*
X344678Y144653D02*
X354457Y149987D01*
X342011Y155975D02*
X338455Y160420D01*
X354457Y160420D01*
X354457Y155975D02*
X354457Y164865D01*
D12*
X114300Y646430D02*
X114300Y750570D01*
X273050Y750570D02*
X273050Y646430D01*
X238760Y646430D02*
X114300Y646430D01*
X238760Y646430D02*
X238760Y655320D01*
X254000Y655320D01*
X254000Y646430D01*
X273050Y646430D01*
X238760Y750570D02*
X114300Y750570D01*
X238760Y750570D02*
X238760Y741680D01*
X254000Y741680D01*
X254000Y750570D01*
X273050Y750570D01*
D18*
X120650Y744220D02*
X120650Y652780D01*
X203200Y652780D01*
X203200Y744220D01*
X120650Y744220D01*
D12*
X220726Y698500D02*
X220731Y698943D01*
X220748Y699385D01*
X220775Y699827D01*
X220813Y700268D01*
X220862Y700708D01*
X220921Y701146D01*
X220992Y701583D01*
X221073Y702018D01*
X221164Y702451D01*
X221266Y702882D01*
X221379Y703310D01*
X221503Y703735D01*
X221636Y704157D01*
X221780Y704575D01*
X221934Y704990D01*
X222099Y705401D01*
X222273Y705808D01*
X222457Y706211D01*
X222652Y706608D01*
X222855Y707001D01*
X223069Y707389D01*
X223292Y707771D01*
X223524Y708148D01*
X223765Y708519D01*
X224016Y708884D01*
X224275Y709243D01*
X224543Y709595D01*
X224820Y709941D01*
X225104Y710279D01*
X225398Y710611D01*
X225699Y710935D01*
X226008Y711252D01*
X226325Y711561D01*
X226649Y711862D01*
X226981Y712156D01*
X227319Y712440D01*
X227665Y712717D01*
X228017Y712985D01*
X228376Y713244D01*
X228741Y713495D01*
X229112Y713736D01*
X229489Y713968D01*
X229871Y714191D01*
X230259Y714405D01*
X230652Y714608D01*
X231049Y714803D01*
X231452Y714987D01*
X231859Y715161D01*
X232270Y715326D01*
X232685Y715480D01*
X233103Y715624D01*
X233525Y715757D01*
X233950Y715881D01*
X234378Y715994D01*
X234809Y716096D01*
X235242Y716187D01*
X235677Y716268D01*
X236114Y716339D01*
X236552Y716398D01*
X236992Y716447D01*
X237433Y716485D01*
X237875Y716512D01*
X238317Y716529D01*
X238760Y716534D01*
X239203Y716529D01*
X239645Y716512D01*
X240087Y716485D01*
X240528Y716447D01*
X240968Y716398D01*
X241406Y716339D01*
X241843Y716268D01*
X242278Y716187D01*
X242711Y716096D01*
X243142Y715994D01*
X243570Y715881D01*
X243995Y715757D01*
X244417Y715624D01*
X244835Y715480D01*
X245250Y715326D01*
X245661Y715161D01*
X246068Y714987D01*
X246471Y714803D01*
X246868Y714608D01*
X247261Y714405D01*
X247649Y714191D01*
X248031Y713968D01*
X248408Y713736D01*
X248779Y713495D01*
X249144Y713244D01*
X249503Y712985D01*
X249855Y712717D01*
X250201Y712440D01*
X250539Y712156D01*
X250871Y711862D01*
X251195Y711561D01*
X251512Y711252D01*
X251821Y710935D01*
X252122Y710611D01*
X252416Y710279D01*
X252700Y709941D01*
X252977Y709595D01*
X253245Y709243D01*
X253504Y708884D01*
X253755Y708519D01*
X253996Y708148D01*
X254228Y707771D01*
X254451Y707389D01*
X254665Y707001D01*
X254868Y706608D01*
X255063Y706211D01*
X255247Y705808D01*
X255421Y705401D01*
X255586Y704990D01*
X255740Y704575D01*
X255884Y704157D01*
X256017Y703735D01*
X256141Y703310D01*
X256254Y702882D01*
X256356Y702451D01*
X256447Y702018D01*
X256528Y701583D01*
X256599Y701146D01*
X256658Y700708D01*
X256707Y700268D01*
X256745Y699827D01*
X256772Y699385D01*
X256789Y698943D01*
X256794Y698500D01*
X256789Y698057D01*
X256772Y697615D01*
X256745Y697173D01*
X256707Y696732D01*
X256658Y696292D01*
X256599Y695854D01*
X256528Y695417D01*
X256447Y694982D01*
X256356Y694549D01*
X256254Y694118D01*
X256141Y693690D01*
X256017Y693265D01*
X255884Y692843D01*
X255740Y692425D01*
X255586Y692010D01*
X255421Y691599D01*
X255247Y691192D01*
X255063Y690789D01*
X254868Y690392D01*
X254665Y689999D01*
X254451Y689611D01*
X254228Y689229D01*
X253996Y688852D01*
X253755Y688481D01*
X253504Y688116D01*
X253245Y687757D01*
X252977Y687405D01*
X252700Y687059D01*
X252416Y686721D01*
X252122Y686389D01*
X251821Y686065D01*
X251512Y685748D01*
X251195Y685439D01*
X250871Y685138D01*
X250539Y684844D01*
X250201Y684560D01*
X249855Y684283D01*
X249503Y684015D01*
X249144Y683756D01*
X248779Y683505D01*
X248408Y683264D01*
X248031Y683032D01*
X247649Y682809D01*
X247261Y682595D01*
X246868Y682392D01*
X246471Y682197D01*
X246068Y682013D01*
X245661Y681839D01*
X245250Y681674D01*
X244835Y681520D01*
X244417Y681376D01*
X243995Y681243D01*
X243570Y681119D01*
X243142Y681006D01*
X242711Y680904D01*
X242278Y680813D01*
X241843Y680732D01*
X241406Y680661D01*
X240968Y680602D01*
X240528Y680553D01*
X240087Y680515D01*
X239645Y680488D01*
X239203Y680471D01*
X238760Y680466D01*
X238317Y680471D01*
X237875Y680488D01*
X237433Y680515D01*
X236992Y680553D01*
X236552Y680602D01*
X236114Y680661D01*
X235677Y680732D01*
X235242Y680813D01*
X234809Y680904D01*
X234378Y681006D01*
X233950Y681119D01*
X233525Y681243D01*
X233103Y681376D01*
X232685Y681520D01*
X232270Y681674D01*
X231859Y681839D01*
X231452Y682013D01*
X231049Y682197D01*
X230652Y682392D01*
X230259Y682595D01*
X229871Y682809D01*
X229489Y683032D01*
X229112Y683264D01*
X228741Y683505D01*
X228376Y683756D01*
X228017Y684015D01*
X227665Y684283D01*
X227319Y684560D01*
X226981Y684844D01*
X226649Y685138D01*
X226325Y685439D01*
X226008Y685748D01*
X225699Y686065D01*
X225398Y686389D01*
X225104Y686721D01*
X224820Y687059D01*
X224543Y687405D01*
X224275Y687757D01*
X224016Y688116D01*
X223765Y688481D01*
X223524Y688852D01*
X223292Y689229D01*
X223069Y689611D01*
X222855Y689999D01*
X222652Y690392D01*
X222457Y690789D01*
X222273Y691192D01*
X222099Y691599D01*
X221934Y692010D01*
X221780Y692425D01*
X221636Y692843D01*
X221503Y693265D01*
X221379Y693690D01*
X221266Y694118D01*
X221164Y694549D01*
X221073Y694982D01*
X220992Y695417D01*
X220921Y695854D01*
X220862Y696292D01*
X220813Y696732D01*
X220775Y697173D01*
X220748Y697615D01*
X220731Y698057D01*
X220726Y698500D01*
D19*
X215392Y684225D02*
X206248Y687273D01*
X215392Y690321D01*
X213106Y689559D02*
X213106Y684987D01*
X208280Y693877D02*
X206248Y696417D01*
X215392Y696417D01*
X215392Y693877D02*
X215392Y698957D01*
X207264Y703021D02*
X206248Y703021D01*
X206248Y708101D01*
X215392Y705561D01*
X215392Y711669D02*
X215392Y712177D01*
X215392Y711669D02*
X214884Y711669D01*
X214884Y712177D01*
X215392Y712177D01*
X217424Y711415D01*
X215392Y715823D02*
X215392Y718871D01*
X215390Y718960D01*
X215384Y719048D01*
X215375Y719136D01*
X215361Y719224D01*
X215344Y719311D01*
X215323Y719397D01*
X215298Y719482D01*
X215269Y719566D01*
X215237Y719649D01*
X215202Y719730D01*
X215162Y719809D01*
X215120Y719887D01*
X215074Y719963D01*
X215025Y720037D01*
X214972Y720108D01*
X214917Y720177D01*
X214858Y720244D01*
X214797Y720308D01*
X214733Y720369D01*
X214666Y720428D01*
X214597Y720483D01*
X214526Y720536D01*
X214452Y720585D01*
X214376Y720631D01*
X214298Y720673D01*
X214219Y720713D01*
X214138Y720748D01*
X214055Y720780D01*
X213971Y720809D01*
X213886Y720834D01*
X213800Y720855D01*
X213713Y720872D01*
X213625Y720886D01*
X213537Y720895D01*
X213449Y720901D01*
X213360Y720903D01*
X212344Y720903D01*
X212255Y720901D01*
X212167Y720895D01*
X212079Y720886D01*
X211991Y720872D01*
X211904Y720855D01*
X211818Y720834D01*
X211733Y720809D01*
X211649Y720780D01*
X211566Y720748D01*
X211485Y720713D01*
X211406Y720673D01*
X211328Y720631D01*
X211252Y720585D01*
X211178Y720536D01*
X211107Y720483D01*
X211038Y720428D01*
X210971Y720369D01*
X210907Y720308D01*
X210846Y720244D01*
X210787Y720177D01*
X210732Y720108D01*
X210679Y720037D01*
X210630Y719963D01*
X210584Y719887D01*
X210542Y719809D01*
X210502Y719730D01*
X210467Y719649D01*
X210435Y719566D01*
X210406Y719482D01*
X210381Y719397D01*
X210360Y719311D01*
X210343Y719224D01*
X210329Y719136D01*
X210320Y719048D01*
X210314Y718960D01*
X210312Y718871D01*
X210312Y715823D01*
X206248Y715823D01*
X206248Y720903D01*
X209296Y725373D02*
X215392Y725373D01*
X209296Y725373D02*
X209296Y729945D01*
X209298Y730022D01*
X209304Y730099D01*
X209314Y730176D01*
X209327Y730252D01*
X209345Y730327D01*
X209366Y730401D01*
X209391Y730474D01*
X209420Y730546D01*
X209452Y730616D01*
X209487Y730685D01*
X209527Y730751D01*
X209569Y730816D01*
X209615Y730878D01*
X209664Y730938D01*
X209715Y730995D01*
X209770Y731050D01*
X209827Y731101D01*
X209887Y731150D01*
X209949Y731196D01*
X210014Y731238D01*
X210080Y731278D01*
X210149Y731313D01*
X210219Y731345D01*
X210291Y731374D01*
X210364Y731399D01*
X210438Y731420D01*
X210513Y731438D01*
X210589Y731451D01*
X210666Y731461D01*
X210743Y731467D01*
X210820Y731469D01*
X215392Y731469D01*
X215392Y728421D02*
X209296Y728421D01*
X209296Y736346D02*
X215392Y736346D01*
X209296Y736346D02*
X209296Y740918D01*
X209298Y740995D01*
X209304Y741072D01*
X209314Y741149D01*
X209327Y741225D01*
X209345Y741300D01*
X209366Y741374D01*
X209391Y741447D01*
X209420Y741519D01*
X209452Y741589D01*
X209487Y741658D01*
X209527Y741724D01*
X209569Y741789D01*
X209615Y741851D01*
X209664Y741911D01*
X209715Y741968D01*
X209770Y742023D01*
X209827Y742074D01*
X209887Y742123D01*
X209949Y742169D01*
X210014Y742211D01*
X210080Y742251D01*
X210149Y742286D01*
X210219Y742318D01*
X210291Y742347D01*
X210364Y742372D01*
X210438Y742393D01*
X210513Y742411D01*
X210589Y742424D01*
X210666Y742434D01*
X210743Y742440D01*
X210820Y742442D01*
X215392Y742442D01*
X215392Y739394D02*
X209296Y739394D01*
D20*
X83185Y673100D03*
X83185Y698500D03*
X83185Y723900D03*
D21*
X100330Y723900D03*
X100330Y698500D03*
X100330Y673100D03*
D17*
X184404Y711590D02*
X191516Y711590D01*
X184404Y711590D02*
X184272Y711592D01*
X184141Y711598D01*
X184009Y711608D01*
X183878Y711621D01*
X183748Y711639D01*
X183618Y711660D01*
X183488Y711685D01*
X183360Y711714D01*
X183232Y711747D01*
X183106Y711784D01*
X182980Y711824D01*
X182856Y711868D01*
X182733Y711916D01*
X182612Y711967D01*
X182492Y712022D01*
X182374Y712080D01*
X182258Y712142D01*
X182144Y712208D01*
X182031Y712276D01*
X181921Y712348D01*
X181813Y712423D01*
X181707Y712502D01*
X181603Y712583D01*
X181502Y712668D01*
X181404Y712755D01*
X181308Y712846D01*
X181215Y712939D01*
X181124Y713035D01*
X181037Y713133D01*
X180952Y713234D01*
X180871Y713338D01*
X180792Y713444D01*
X180717Y713552D01*
X180645Y713662D01*
X180577Y713775D01*
X180511Y713889D01*
X180449Y714005D01*
X180391Y714123D01*
X180336Y714243D01*
X180285Y714364D01*
X180237Y714487D01*
X180193Y714611D01*
X180153Y714737D01*
X180116Y714863D01*
X180083Y714991D01*
X180054Y715119D01*
X180029Y715249D01*
X180008Y715379D01*
X179990Y715509D01*
X179977Y715640D01*
X179967Y715772D01*
X179961Y715903D01*
X179959Y716035D01*
X179961Y716167D01*
X179967Y716298D01*
X179977Y716430D01*
X179990Y716561D01*
X180008Y716691D01*
X180029Y716821D01*
X180054Y716951D01*
X180083Y717079D01*
X180116Y717207D01*
X180153Y717333D01*
X180193Y717459D01*
X180237Y717583D01*
X180285Y717706D01*
X180336Y717827D01*
X180391Y717947D01*
X180449Y718065D01*
X180511Y718181D01*
X180577Y718295D01*
X180645Y718408D01*
X180717Y718518D01*
X180792Y718626D01*
X180871Y718732D01*
X180952Y718836D01*
X181037Y718937D01*
X181124Y719035D01*
X181215Y719131D01*
X181308Y719224D01*
X181404Y719315D01*
X181502Y719402D01*
X181603Y719487D01*
X181707Y719568D01*
X181813Y719647D01*
X181921Y719722D01*
X182031Y719794D01*
X182144Y719862D01*
X182258Y719928D01*
X182374Y719990D01*
X182492Y720048D01*
X182612Y720103D01*
X182733Y720154D01*
X182856Y720202D01*
X182980Y720246D01*
X183106Y720286D01*
X183232Y720323D01*
X183360Y720356D01*
X183488Y720385D01*
X183618Y720410D01*
X183748Y720431D01*
X183878Y720449D01*
X184009Y720462D01*
X184141Y720472D01*
X184272Y720478D01*
X184404Y720480D01*
X191516Y720480D01*
X191648Y720478D01*
X191779Y720472D01*
X191911Y720462D01*
X192042Y720449D01*
X192172Y720431D01*
X192302Y720410D01*
X192432Y720385D01*
X192560Y720356D01*
X192688Y720323D01*
X192814Y720286D01*
X192940Y720246D01*
X193064Y720202D01*
X193187Y720154D01*
X193308Y720103D01*
X193428Y720048D01*
X193546Y719990D01*
X193662Y719928D01*
X193776Y719862D01*
X193889Y719794D01*
X193999Y719722D01*
X194107Y719647D01*
X194213Y719568D01*
X194317Y719487D01*
X194418Y719402D01*
X194516Y719315D01*
X194612Y719224D01*
X194705Y719131D01*
X194796Y719035D01*
X194883Y718937D01*
X194968Y718836D01*
X195049Y718732D01*
X195128Y718626D01*
X195203Y718518D01*
X195275Y718408D01*
X195343Y718295D01*
X195409Y718181D01*
X195471Y718065D01*
X195529Y717947D01*
X195584Y717827D01*
X195635Y717706D01*
X195683Y717583D01*
X195727Y717459D01*
X195767Y717333D01*
X195804Y717207D01*
X195837Y717079D01*
X195866Y716951D01*
X195891Y716821D01*
X195912Y716691D01*
X195930Y716561D01*
X195943Y716430D01*
X195953Y716298D01*
X195959Y716167D01*
X195961Y716035D01*
X195959Y715903D01*
X195953Y715772D01*
X195943Y715640D01*
X195930Y715509D01*
X195912Y715379D01*
X195891Y715249D01*
X195866Y715119D01*
X195837Y714991D01*
X195804Y714863D01*
X195767Y714737D01*
X195727Y714611D01*
X195683Y714487D01*
X195635Y714364D01*
X195584Y714243D01*
X195529Y714123D01*
X195471Y714005D01*
X195409Y713889D01*
X195343Y713775D01*
X195275Y713662D01*
X195203Y713552D01*
X195128Y713444D01*
X195049Y713338D01*
X194968Y713234D01*
X194883Y713133D01*
X194796Y713035D01*
X194705Y712939D01*
X194612Y712846D01*
X194516Y712755D01*
X194418Y712668D01*
X194317Y712583D01*
X194213Y712502D01*
X194107Y712423D01*
X193999Y712348D01*
X193889Y712276D01*
X193776Y712208D01*
X193662Y712142D01*
X193546Y712080D01*
X193428Y712022D01*
X193308Y711967D01*
X193187Y711916D01*
X193064Y711868D01*
X192940Y711824D01*
X192814Y711784D01*
X192688Y711747D01*
X192560Y711714D01*
X192432Y711685D01*
X192302Y711660D01*
X192172Y711639D01*
X192042Y711621D01*
X191911Y711608D01*
X191779Y711598D01*
X191648Y711592D01*
X191516Y711590D01*
X192405Y718702D02*
X195961Y722258D01*
X183515Y726821D02*
X179959Y731266D01*
X195961Y731266D01*
X195961Y726821D02*
X195961Y735711D01*
D12*
X193040Y401320D02*
X193040Y297180D01*
X351790Y297180D02*
X351790Y401320D01*
X317500Y297180D02*
X193040Y297180D01*
X317500Y297180D02*
X317500Y306070D01*
X332740Y306070D01*
X332740Y297180D01*
X351790Y297180D01*
X317500Y401320D02*
X193040Y401320D01*
X317500Y401320D02*
X317500Y392430D01*
X332740Y392430D01*
X332740Y401320D01*
X351790Y401320D01*
D18*
X199390Y394970D02*
X199390Y303530D01*
X281940Y303530D01*
X281940Y394970D01*
X199390Y394970D01*
D12*
X299466Y349250D02*
X299471Y349693D01*
X299488Y350135D01*
X299515Y350577D01*
X299553Y351018D01*
X299602Y351458D01*
X299661Y351896D01*
X299732Y352333D01*
X299813Y352768D01*
X299904Y353201D01*
X300006Y353632D01*
X300119Y354060D01*
X300243Y354485D01*
X300376Y354907D01*
X300520Y355325D01*
X300674Y355740D01*
X300839Y356151D01*
X301013Y356558D01*
X301197Y356961D01*
X301392Y357358D01*
X301595Y357751D01*
X301809Y358139D01*
X302032Y358521D01*
X302264Y358898D01*
X302505Y359269D01*
X302756Y359634D01*
X303015Y359993D01*
X303283Y360345D01*
X303560Y360691D01*
X303844Y361029D01*
X304138Y361361D01*
X304439Y361685D01*
X304748Y362002D01*
X305065Y362311D01*
X305389Y362612D01*
X305721Y362906D01*
X306059Y363190D01*
X306405Y363467D01*
X306757Y363735D01*
X307116Y363994D01*
X307481Y364245D01*
X307852Y364486D01*
X308229Y364718D01*
X308611Y364941D01*
X308999Y365155D01*
X309392Y365358D01*
X309789Y365553D01*
X310192Y365737D01*
X310599Y365911D01*
X311010Y366076D01*
X311425Y366230D01*
X311843Y366374D01*
X312265Y366507D01*
X312690Y366631D01*
X313118Y366744D01*
X313549Y366846D01*
X313982Y366937D01*
X314417Y367018D01*
X314854Y367089D01*
X315292Y367148D01*
X315732Y367197D01*
X316173Y367235D01*
X316615Y367262D01*
X317057Y367279D01*
X317500Y367284D01*
X317943Y367279D01*
X318385Y367262D01*
X318827Y367235D01*
X319268Y367197D01*
X319708Y367148D01*
X320146Y367089D01*
X320583Y367018D01*
X321018Y366937D01*
X321451Y366846D01*
X321882Y366744D01*
X322310Y366631D01*
X322735Y366507D01*
X323157Y366374D01*
X323575Y366230D01*
X323990Y366076D01*
X324401Y365911D01*
X324808Y365737D01*
X325211Y365553D01*
X325608Y365358D01*
X326001Y365155D01*
X326389Y364941D01*
X326771Y364718D01*
X327148Y364486D01*
X327519Y364245D01*
X327884Y363994D01*
X328243Y363735D01*
X328595Y363467D01*
X328941Y363190D01*
X329279Y362906D01*
X329611Y362612D01*
X329935Y362311D01*
X330252Y362002D01*
X330561Y361685D01*
X330862Y361361D01*
X331156Y361029D01*
X331440Y360691D01*
X331717Y360345D01*
X331985Y359993D01*
X332244Y359634D01*
X332495Y359269D01*
X332736Y358898D01*
X332968Y358521D01*
X333191Y358139D01*
X333405Y357751D01*
X333608Y357358D01*
X333803Y356961D01*
X333987Y356558D01*
X334161Y356151D01*
X334326Y355740D01*
X334480Y355325D01*
X334624Y354907D01*
X334757Y354485D01*
X334881Y354060D01*
X334994Y353632D01*
X335096Y353201D01*
X335187Y352768D01*
X335268Y352333D01*
X335339Y351896D01*
X335398Y351458D01*
X335447Y351018D01*
X335485Y350577D01*
X335512Y350135D01*
X335529Y349693D01*
X335534Y349250D01*
X335529Y348807D01*
X335512Y348365D01*
X335485Y347923D01*
X335447Y347482D01*
X335398Y347042D01*
X335339Y346604D01*
X335268Y346167D01*
X335187Y345732D01*
X335096Y345299D01*
X334994Y344868D01*
X334881Y344440D01*
X334757Y344015D01*
X334624Y343593D01*
X334480Y343175D01*
X334326Y342760D01*
X334161Y342349D01*
X333987Y341942D01*
X333803Y341539D01*
X333608Y341142D01*
X333405Y340749D01*
X333191Y340361D01*
X332968Y339979D01*
X332736Y339602D01*
X332495Y339231D01*
X332244Y338866D01*
X331985Y338507D01*
X331717Y338155D01*
X331440Y337809D01*
X331156Y337471D01*
X330862Y337139D01*
X330561Y336815D01*
X330252Y336498D01*
X329935Y336189D01*
X329611Y335888D01*
X329279Y335594D01*
X328941Y335310D01*
X328595Y335033D01*
X328243Y334765D01*
X327884Y334506D01*
X327519Y334255D01*
X327148Y334014D01*
X326771Y333782D01*
X326389Y333559D01*
X326001Y333345D01*
X325608Y333142D01*
X325211Y332947D01*
X324808Y332763D01*
X324401Y332589D01*
X323990Y332424D01*
X323575Y332270D01*
X323157Y332126D01*
X322735Y331993D01*
X322310Y331869D01*
X321882Y331756D01*
X321451Y331654D01*
X321018Y331563D01*
X320583Y331482D01*
X320146Y331411D01*
X319708Y331352D01*
X319268Y331303D01*
X318827Y331265D01*
X318385Y331238D01*
X317943Y331221D01*
X317500Y331216D01*
X317057Y331221D01*
X316615Y331238D01*
X316173Y331265D01*
X315732Y331303D01*
X315292Y331352D01*
X314854Y331411D01*
X314417Y331482D01*
X313982Y331563D01*
X313549Y331654D01*
X313118Y331756D01*
X312690Y331869D01*
X312265Y331993D01*
X311843Y332126D01*
X311425Y332270D01*
X311010Y332424D01*
X310599Y332589D01*
X310192Y332763D01*
X309789Y332947D01*
X309392Y333142D01*
X308999Y333345D01*
X308611Y333559D01*
X308229Y333782D01*
X307852Y334014D01*
X307481Y334255D01*
X307116Y334506D01*
X306757Y334765D01*
X306405Y335033D01*
X306059Y335310D01*
X305721Y335594D01*
X305389Y335888D01*
X305065Y336189D01*
X304748Y336498D01*
X304439Y336815D01*
X304138Y337139D01*
X303844Y337471D01*
X303560Y337809D01*
X303283Y338155D01*
X303015Y338507D01*
X302756Y338866D01*
X302505Y339231D01*
X302264Y339602D01*
X302032Y339979D01*
X301809Y340361D01*
X301595Y340749D01*
X301392Y341142D01*
X301197Y341539D01*
X301013Y341942D01*
X300839Y342349D01*
X300674Y342760D01*
X300520Y343175D01*
X300376Y343593D01*
X300243Y344015D01*
X300119Y344440D01*
X300006Y344868D01*
X299904Y345299D01*
X299813Y345732D01*
X299732Y346167D01*
X299661Y346604D01*
X299602Y347042D01*
X299553Y347482D01*
X299515Y347923D01*
X299488Y348365D01*
X299471Y348807D01*
X299466Y349250D01*
D19*
X294132Y334975D02*
X284988Y338023D01*
X294132Y341071D01*
X291846Y340309D02*
X291846Y335737D01*
X287020Y344627D02*
X284988Y347167D01*
X294132Y347167D01*
X294132Y344627D02*
X294132Y349707D01*
X286004Y353771D02*
X284988Y353771D01*
X284988Y358851D01*
X294132Y356311D01*
X294132Y362419D02*
X294132Y362927D01*
X294132Y362419D02*
X293624Y362419D01*
X293624Y362927D01*
X294132Y362927D01*
X296164Y362165D01*
X294132Y366573D02*
X294132Y369621D01*
X294130Y369710D01*
X294124Y369798D01*
X294115Y369886D01*
X294101Y369974D01*
X294084Y370061D01*
X294063Y370147D01*
X294038Y370232D01*
X294009Y370316D01*
X293977Y370399D01*
X293942Y370480D01*
X293902Y370559D01*
X293860Y370637D01*
X293814Y370713D01*
X293765Y370787D01*
X293712Y370858D01*
X293657Y370927D01*
X293598Y370994D01*
X293537Y371058D01*
X293473Y371119D01*
X293406Y371178D01*
X293337Y371233D01*
X293266Y371286D01*
X293192Y371335D01*
X293116Y371381D01*
X293038Y371423D01*
X292959Y371463D01*
X292878Y371498D01*
X292795Y371530D01*
X292711Y371559D01*
X292626Y371584D01*
X292540Y371605D01*
X292453Y371622D01*
X292365Y371636D01*
X292277Y371645D01*
X292189Y371651D01*
X292100Y371653D01*
X291084Y371653D01*
X290995Y371651D01*
X290907Y371645D01*
X290819Y371636D01*
X290731Y371622D01*
X290644Y371605D01*
X290558Y371584D01*
X290473Y371559D01*
X290389Y371530D01*
X290306Y371498D01*
X290225Y371463D01*
X290146Y371423D01*
X290068Y371381D01*
X289992Y371335D01*
X289918Y371286D01*
X289847Y371233D01*
X289778Y371178D01*
X289711Y371119D01*
X289647Y371058D01*
X289586Y370994D01*
X289527Y370927D01*
X289472Y370858D01*
X289419Y370787D01*
X289370Y370713D01*
X289324Y370637D01*
X289282Y370559D01*
X289242Y370480D01*
X289207Y370399D01*
X289175Y370316D01*
X289146Y370232D01*
X289121Y370147D01*
X289100Y370061D01*
X289083Y369974D01*
X289069Y369886D01*
X289060Y369798D01*
X289054Y369710D01*
X289052Y369621D01*
X289052Y366573D01*
X284988Y366573D01*
X284988Y371653D01*
X288036Y376123D02*
X294132Y376123D01*
X288036Y376123D02*
X288036Y380695D01*
X288038Y380772D01*
X288044Y380849D01*
X288054Y380926D01*
X288067Y381002D01*
X288085Y381077D01*
X288106Y381151D01*
X288131Y381224D01*
X288160Y381296D01*
X288192Y381366D01*
X288227Y381435D01*
X288267Y381501D01*
X288309Y381566D01*
X288355Y381628D01*
X288404Y381688D01*
X288455Y381745D01*
X288510Y381800D01*
X288567Y381851D01*
X288627Y381900D01*
X288689Y381946D01*
X288754Y381988D01*
X288820Y382028D01*
X288889Y382063D01*
X288959Y382095D01*
X289031Y382124D01*
X289104Y382149D01*
X289178Y382170D01*
X289253Y382188D01*
X289329Y382201D01*
X289406Y382211D01*
X289483Y382217D01*
X289560Y382219D01*
X294132Y382219D01*
X294132Y379171D02*
X288036Y379171D01*
X288036Y387096D02*
X294132Y387096D01*
X288036Y387096D02*
X288036Y391668D01*
X288038Y391745D01*
X288044Y391822D01*
X288054Y391899D01*
X288067Y391975D01*
X288085Y392050D01*
X288106Y392124D01*
X288131Y392197D01*
X288160Y392269D01*
X288192Y392339D01*
X288227Y392408D01*
X288267Y392474D01*
X288309Y392539D01*
X288355Y392601D01*
X288404Y392661D01*
X288455Y392718D01*
X288510Y392773D01*
X288567Y392824D01*
X288627Y392873D01*
X288689Y392919D01*
X288754Y392961D01*
X288820Y393001D01*
X288889Y393036D01*
X288959Y393068D01*
X289031Y393097D01*
X289104Y393122D01*
X289178Y393143D01*
X289253Y393161D01*
X289329Y393174D01*
X289406Y393184D01*
X289483Y393190D01*
X289560Y393192D01*
X294132Y393192D01*
X294132Y390144D02*
X288036Y390144D01*
D20*
X161925Y323850D03*
X161925Y349250D03*
X161925Y374650D03*
D21*
X179070Y374650D03*
X179070Y349250D03*
X179070Y323850D03*
D17*
X263144Y362340D02*
X270256Y362340D01*
X263144Y362340D02*
X263012Y362342D01*
X262881Y362348D01*
X262749Y362358D01*
X262618Y362371D01*
X262488Y362389D01*
X262358Y362410D01*
X262228Y362435D01*
X262100Y362464D01*
X261972Y362497D01*
X261846Y362534D01*
X261720Y362574D01*
X261596Y362618D01*
X261473Y362666D01*
X261352Y362717D01*
X261232Y362772D01*
X261114Y362830D01*
X260998Y362892D01*
X260884Y362958D01*
X260771Y363026D01*
X260661Y363098D01*
X260553Y363173D01*
X260447Y363252D01*
X260343Y363333D01*
X260242Y363418D01*
X260144Y363505D01*
X260048Y363596D01*
X259955Y363689D01*
X259864Y363785D01*
X259777Y363883D01*
X259692Y363984D01*
X259611Y364088D01*
X259532Y364194D01*
X259457Y364302D01*
X259385Y364412D01*
X259317Y364525D01*
X259251Y364639D01*
X259189Y364755D01*
X259131Y364873D01*
X259076Y364993D01*
X259025Y365114D01*
X258977Y365237D01*
X258933Y365361D01*
X258893Y365487D01*
X258856Y365613D01*
X258823Y365741D01*
X258794Y365869D01*
X258769Y365999D01*
X258748Y366129D01*
X258730Y366259D01*
X258717Y366390D01*
X258707Y366522D01*
X258701Y366653D01*
X258699Y366785D01*
X258701Y366917D01*
X258707Y367048D01*
X258717Y367180D01*
X258730Y367311D01*
X258748Y367441D01*
X258769Y367571D01*
X258794Y367701D01*
X258823Y367829D01*
X258856Y367957D01*
X258893Y368083D01*
X258933Y368209D01*
X258977Y368333D01*
X259025Y368456D01*
X259076Y368577D01*
X259131Y368697D01*
X259189Y368815D01*
X259251Y368931D01*
X259317Y369045D01*
X259385Y369158D01*
X259457Y369268D01*
X259532Y369376D01*
X259611Y369482D01*
X259692Y369586D01*
X259777Y369687D01*
X259864Y369785D01*
X259955Y369881D01*
X260048Y369974D01*
X260144Y370065D01*
X260242Y370152D01*
X260343Y370237D01*
X260447Y370318D01*
X260553Y370397D01*
X260661Y370472D01*
X260771Y370544D01*
X260884Y370612D01*
X260998Y370678D01*
X261114Y370740D01*
X261232Y370798D01*
X261352Y370853D01*
X261473Y370904D01*
X261596Y370952D01*
X261720Y370996D01*
X261846Y371036D01*
X261972Y371073D01*
X262100Y371106D01*
X262228Y371135D01*
X262358Y371160D01*
X262488Y371181D01*
X262618Y371199D01*
X262749Y371212D01*
X262881Y371222D01*
X263012Y371228D01*
X263144Y371230D01*
X270256Y371230D01*
X270388Y371228D01*
X270519Y371222D01*
X270651Y371212D01*
X270782Y371199D01*
X270912Y371181D01*
X271042Y371160D01*
X271172Y371135D01*
X271300Y371106D01*
X271428Y371073D01*
X271554Y371036D01*
X271680Y370996D01*
X271804Y370952D01*
X271927Y370904D01*
X272048Y370853D01*
X272168Y370798D01*
X272286Y370740D01*
X272402Y370678D01*
X272516Y370612D01*
X272629Y370544D01*
X272739Y370472D01*
X272847Y370397D01*
X272953Y370318D01*
X273057Y370237D01*
X273158Y370152D01*
X273256Y370065D01*
X273352Y369974D01*
X273445Y369881D01*
X273536Y369785D01*
X273623Y369687D01*
X273708Y369586D01*
X273789Y369482D01*
X273868Y369376D01*
X273943Y369268D01*
X274015Y369158D01*
X274083Y369045D01*
X274149Y368931D01*
X274211Y368815D01*
X274269Y368697D01*
X274324Y368577D01*
X274375Y368456D01*
X274423Y368333D01*
X274467Y368209D01*
X274507Y368083D01*
X274544Y367957D01*
X274577Y367829D01*
X274606Y367701D01*
X274631Y367571D01*
X274652Y367441D01*
X274670Y367311D01*
X274683Y367180D01*
X274693Y367048D01*
X274699Y366917D01*
X274701Y366785D01*
X274699Y366653D01*
X274693Y366522D01*
X274683Y366390D01*
X274670Y366259D01*
X274652Y366129D01*
X274631Y365999D01*
X274606Y365869D01*
X274577Y365741D01*
X274544Y365613D01*
X274507Y365487D01*
X274467Y365361D01*
X274423Y365237D01*
X274375Y365114D01*
X274324Y364993D01*
X274269Y364873D01*
X274211Y364755D01*
X274149Y364639D01*
X274083Y364525D01*
X274015Y364412D01*
X273943Y364302D01*
X273868Y364194D01*
X273789Y364088D01*
X273708Y363984D01*
X273623Y363883D01*
X273536Y363785D01*
X273445Y363689D01*
X273352Y363596D01*
X273256Y363505D01*
X273158Y363418D01*
X273057Y363333D01*
X272953Y363252D01*
X272847Y363173D01*
X272739Y363098D01*
X272629Y363026D01*
X272516Y362958D01*
X272402Y362892D01*
X272286Y362830D01*
X272168Y362772D01*
X272048Y362717D01*
X271927Y362666D01*
X271804Y362618D01*
X271680Y362574D01*
X271554Y362534D01*
X271428Y362497D01*
X271300Y362464D01*
X271172Y362435D01*
X271042Y362410D01*
X270912Y362389D01*
X270782Y362371D01*
X270651Y362358D01*
X270519Y362348D01*
X270388Y362342D01*
X270256Y362340D01*
X271145Y369452D02*
X274701Y373008D01*
X262700Y386462D02*
X262574Y386460D01*
X262449Y386454D01*
X262323Y386444D01*
X262199Y386430D01*
X262074Y386413D01*
X261950Y386391D01*
X261827Y386366D01*
X261705Y386336D01*
X261584Y386303D01*
X261464Y386266D01*
X261345Y386225D01*
X261227Y386181D01*
X261111Y386133D01*
X260996Y386081D01*
X260884Y386026D01*
X260773Y385967D01*
X260663Y385905D01*
X260556Y385839D01*
X260451Y385770D01*
X260348Y385698D01*
X260248Y385622D01*
X260150Y385544D01*
X260054Y385462D01*
X259961Y385378D01*
X259871Y385290D01*
X259783Y385200D01*
X259699Y385107D01*
X259617Y385011D01*
X259539Y384913D01*
X259463Y384813D01*
X259391Y384710D01*
X259322Y384605D01*
X259256Y384498D01*
X259194Y384388D01*
X259135Y384277D01*
X259080Y384165D01*
X259028Y384050D01*
X258980Y383934D01*
X258936Y383816D01*
X258895Y383697D01*
X258858Y383577D01*
X258825Y383456D01*
X258795Y383334D01*
X258770Y383211D01*
X258748Y383087D01*
X258731Y382962D01*
X258717Y382838D01*
X258707Y382712D01*
X258701Y382587D01*
X258699Y382461D01*
X258701Y382320D01*
X258707Y382180D01*
X258716Y382040D01*
X258730Y381900D01*
X258747Y381761D01*
X258768Y381622D01*
X258793Y381483D01*
X258821Y381346D01*
X258854Y381209D01*
X258890Y381073D01*
X258930Y380938D01*
X258973Y380805D01*
X259020Y380672D01*
X259071Y380541D01*
X259125Y380412D01*
X259183Y380284D01*
X259244Y380157D01*
X259309Y380032D01*
X259377Y379910D01*
X259448Y379789D01*
X259523Y379669D01*
X259601Y379553D01*
X259682Y379438D01*
X259766Y379325D01*
X259854Y379215D01*
X259944Y379107D01*
X260037Y379002D01*
X260133Y378900D01*
X260232Y378800D01*
X260333Y378702D01*
X260437Y378608D01*
X260544Y378516D01*
X260653Y378428D01*
X260764Y378342D01*
X260878Y378260D01*
X260994Y378180D01*
X261112Y378104D01*
X261232Y378031D01*
X261354Y377962D01*
X261478Y377895D01*
X261604Y377832D01*
X261731Y377773D01*
X261860Y377717D01*
X261990Y377665D01*
X262122Y377616D01*
X262255Y377571D01*
X265812Y385127D02*
X265721Y385219D01*
X265628Y385309D01*
X265533Y385395D01*
X265435Y385479D01*
X265334Y385559D01*
X265231Y385637D01*
X265126Y385711D01*
X265018Y385782D01*
X264909Y385850D01*
X264797Y385914D01*
X264684Y385976D01*
X264569Y386033D01*
X264452Y386088D01*
X264333Y386139D01*
X264213Y386186D01*
X264092Y386229D01*
X263970Y386269D01*
X263846Y386305D01*
X263721Y386338D01*
X263596Y386367D01*
X263469Y386392D01*
X263342Y386413D01*
X263214Y386430D01*
X263086Y386444D01*
X262958Y386453D01*
X262829Y386459D01*
X262700Y386461D01*
X265811Y385128D02*
X274701Y377571D01*
X274701Y386461D01*
D10*
X88900Y312420D02*
X38100Y312420D01*
X88900Y312420D02*
X88900Y304800D01*
X88900Y297180D01*
X38100Y297180D01*
X38100Y304800D01*
X38100Y312420D01*
X88900Y304800D02*
X91440Y304800D01*
X38100Y304800D02*
X35560Y304800D01*
D11*
X59448Y315595D02*
X59448Y320421D01*
X60789Y320421D01*
X60860Y320419D01*
X60932Y320413D01*
X61002Y320404D01*
X61072Y320391D01*
X61142Y320374D01*
X61210Y320353D01*
X61277Y320329D01*
X61343Y320301D01*
X61407Y320270D01*
X61470Y320235D01*
X61530Y320197D01*
X61589Y320156D01*
X61645Y320112D01*
X61699Y320065D01*
X61750Y320016D01*
X61798Y319963D01*
X61844Y319908D01*
X61886Y319851D01*
X61926Y319791D01*
X61962Y319730D01*
X61995Y319666D01*
X62024Y319601D01*
X62050Y319535D01*
X62073Y319467D01*
X62092Y319398D01*
X62107Y319328D01*
X62118Y319258D01*
X62126Y319187D01*
X62130Y319116D01*
X62130Y319044D01*
X62126Y318973D01*
X62118Y318902D01*
X62107Y318832D01*
X62092Y318762D01*
X62073Y318693D01*
X62050Y318625D01*
X62024Y318559D01*
X61995Y318494D01*
X61962Y318430D01*
X61926Y318369D01*
X61886Y318309D01*
X61844Y318252D01*
X61798Y318197D01*
X61750Y318144D01*
X61699Y318095D01*
X61645Y318048D01*
X61589Y318004D01*
X61530Y317963D01*
X61470Y317925D01*
X61407Y317890D01*
X61343Y317859D01*
X61277Y317831D01*
X61210Y317807D01*
X61142Y317786D01*
X61072Y317769D01*
X61002Y317756D01*
X60932Y317747D01*
X60860Y317741D01*
X60789Y317739D01*
X60789Y317740D02*
X59448Y317740D01*
X61057Y317740D02*
X62129Y315595D01*
X64871Y319349D02*
X66211Y320421D01*
X66211Y315595D01*
X64871Y315595D02*
X67552Y315595D01*
D10*
X198120Y635000D02*
X248920Y635000D01*
X248920Y627380D01*
X248920Y619760D01*
X198120Y619760D01*
X198120Y627380D01*
X198120Y635000D01*
X248920Y627380D02*
X251460Y627380D01*
X198120Y627380D02*
X195580Y627380D01*
D11*
X219468Y638175D02*
X219468Y643001D01*
X220809Y643001D01*
X220880Y642999D01*
X220952Y642993D01*
X221022Y642984D01*
X221092Y642971D01*
X221162Y642954D01*
X221230Y642933D01*
X221297Y642909D01*
X221363Y642881D01*
X221427Y642850D01*
X221490Y642815D01*
X221550Y642777D01*
X221609Y642736D01*
X221665Y642692D01*
X221719Y642645D01*
X221770Y642596D01*
X221818Y642543D01*
X221864Y642488D01*
X221906Y642431D01*
X221946Y642371D01*
X221982Y642310D01*
X222015Y642246D01*
X222044Y642181D01*
X222070Y642115D01*
X222093Y642047D01*
X222112Y641978D01*
X222127Y641908D01*
X222138Y641838D01*
X222146Y641767D01*
X222150Y641696D01*
X222150Y641624D01*
X222146Y641553D01*
X222138Y641482D01*
X222127Y641412D01*
X222112Y641342D01*
X222093Y641273D01*
X222070Y641205D01*
X222044Y641139D01*
X222015Y641074D01*
X221982Y641010D01*
X221946Y640949D01*
X221906Y640889D01*
X221864Y640832D01*
X221818Y640777D01*
X221770Y640724D01*
X221719Y640675D01*
X221665Y640628D01*
X221609Y640584D01*
X221550Y640543D01*
X221490Y640505D01*
X221427Y640470D01*
X221363Y640439D01*
X221297Y640411D01*
X221230Y640387D01*
X221162Y640366D01*
X221092Y640349D01*
X221022Y640336D01*
X220952Y640327D01*
X220880Y640321D01*
X220809Y640319D01*
X220809Y640320D02*
X219468Y640320D01*
X221077Y640320D02*
X222149Y638175D01*
X226365Y643001D02*
X226433Y642999D01*
X226500Y642993D01*
X226567Y642984D01*
X226634Y642971D01*
X226699Y642954D01*
X226764Y642933D01*
X226827Y642909D01*
X226889Y642881D01*
X226949Y642850D01*
X227007Y642816D01*
X227063Y642778D01*
X227118Y642738D01*
X227169Y642694D01*
X227218Y642647D01*
X227265Y642598D01*
X227309Y642547D01*
X227349Y642492D01*
X227387Y642436D01*
X227421Y642378D01*
X227452Y642318D01*
X227480Y642256D01*
X227504Y642193D01*
X227525Y642128D01*
X227542Y642063D01*
X227555Y641996D01*
X227564Y641929D01*
X227570Y641862D01*
X227572Y641794D01*
X226365Y643001D02*
X226287Y642999D01*
X226209Y642993D01*
X226132Y642983D01*
X226055Y642970D01*
X225979Y642952D01*
X225904Y642931D01*
X225830Y642906D01*
X225758Y642877D01*
X225687Y642845D01*
X225618Y642809D01*
X225550Y642770D01*
X225485Y642727D01*
X225422Y642681D01*
X225361Y642632D01*
X225303Y642580D01*
X225248Y642525D01*
X225195Y642468D01*
X225146Y642408D01*
X225099Y642345D01*
X225056Y642281D01*
X225016Y642214D01*
X224979Y642145D01*
X224946Y642074D01*
X224916Y642002D01*
X224890Y641929D01*
X227170Y640856D02*
X227219Y640905D01*
X227266Y640957D01*
X227309Y641012D01*
X227350Y641069D01*
X227388Y641128D01*
X227422Y641189D01*
X227453Y641252D01*
X227481Y641316D01*
X227505Y641382D01*
X227525Y641448D01*
X227542Y641516D01*
X227555Y641585D01*
X227564Y641654D01*
X227570Y641724D01*
X227572Y641794D01*
X227170Y640856D02*
X224891Y638175D01*
X227572Y638175D01*
D10*
X146050Y455930D02*
X95250Y455930D01*
X95250Y463550D01*
X95250Y471170D01*
X146050Y471170D01*
X146050Y463550D01*
X146050Y455930D01*
X95250Y463550D02*
X92710Y463550D01*
X146050Y463550D02*
X148590Y463550D01*
D11*
X116598Y452755D02*
X116598Y447929D01*
X116598Y452755D02*
X117939Y452755D01*
X118010Y452753D01*
X118082Y452747D01*
X118152Y452738D01*
X118222Y452725D01*
X118292Y452708D01*
X118360Y452687D01*
X118427Y452663D01*
X118493Y452635D01*
X118557Y452604D01*
X118620Y452569D01*
X118680Y452531D01*
X118739Y452490D01*
X118795Y452446D01*
X118849Y452399D01*
X118900Y452350D01*
X118948Y452297D01*
X118994Y452242D01*
X119036Y452185D01*
X119076Y452125D01*
X119112Y452064D01*
X119145Y452000D01*
X119174Y451935D01*
X119200Y451869D01*
X119223Y451801D01*
X119242Y451732D01*
X119257Y451662D01*
X119268Y451592D01*
X119276Y451521D01*
X119280Y451450D01*
X119280Y451378D01*
X119276Y451307D01*
X119268Y451236D01*
X119257Y451166D01*
X119242Y451096D01*
X119223Y451027D01*
X119200Y450959D01*
X119174Y450893D01*
X119145Y450828D01*
X119112Y450764D01*
X119076Y450703D01*
X119036Y450643D01*
X118994Y450586D01*
X118948Y450531D01*
X118900Y450478D01*
X118849Y450429D01*
X118795Y450382D01*
X118739Y450338D01*
X118680Y450297D01*
X118620Y450259D01*
X118557Y450224D01*
X118493Y450193D01*
X118427Y450165D01*
X118360Y450141D01*
X118292Y450120D01*
X118222Y450103D01*
X118152Y450090D01*
X118082Y450081D01*
X118010Y450075D01*
X117939Y450073D01*
X117939Y450074D02*
X116598Y450074D01*
X118207Y450074D02*
X119279Y447929D01*
X122021Y447929D02*
X123361Y447929D01*
X123432Y447931D01*
X123504Y447937D01*
X123574Y447946D01*
X123644Y447959D01*
X123714Y447976D01*
X123782Y447997D01*
X123849Y448021D01*
X123915Y448049D01*
X123979Y448080D01*
X124042Y448115D01*
X124102Y448153D01*
X124161Y448194D01*
X124217Y448238D01*
X124271Y448285D01*
X124322Y448334D01*
X124370Y448387D01*
X124416Y448442D01*
X124458Y448499D01*
X124498Y448559D01*
X124534Y448620D01*
X124567Y448684D01*
X124596Y448749D01*
X124622Y448815D01*
X124645Y448883D01*
X124664Y448952D01*
X124679Y449022D01*
X124690Y449092D01*
X124698Y449163D01*
X124702Y449234D01*
X124702Y449306D01*
X124698Y449377D01*
X124690Y449448D01*
X124679Y449518D01*
X124664Y449588D01*
X124645Y449657D01*
X124622Y449725D01*
X124596Y449791D01*
X124567Y449856D01*
X124534Y449920D01*
X124498Y449981D01*
X124458Y450041D01*
X124416Y450098D01*
X124370Y450153D01*
X124322Y450206D01*
X124271Y450255D01*
X124217Y450302D01*
X124161Y450346D01*
X124102Y450387D01*
X124042Y450425D01*
X123979Y450460D01*
X123915Y450491D01*
X123849Y450519D01*
X123782Y450543D01*
X123714Y450564D01*
X123644Y450581D01*
X123574Y450594D01*
X123504Y450603D01*
X123432Y450609D01*
X123361Y450611D01*
X123629Y452755D02*
X122021Y452755D01*
X123629Y452755D02*
X123694Y452753D01*
X123758Y452747D01*
X123822Y452737D01*
X123886Y452724D01*
X123948Y452706D01*
X124009Y452685D01*
X124069Y452661D01*
X124127Y452632D01*
X124184Y452600D01*
X124238Y452565D01*
X124290Y452527D01*
X124340Y452485D01*
X124387Y452441D01*
X124431Y452394D01*
X124473Y452344D01*
X124511Y452292D01*
X124546Y452238D01*
X124578Y452181D01*
X124607Y452123D01*
X124631Y452063D01*
X124652Y452002D01*
X124670Y451940D01*
X124683Y451876D01*
X124693Y451812D01*
X124699Y451748D01*
X124701Y451683D01*
X124699Y451618D01*
X124693Y451554D01*
X124683Y451490D01*
X124670Y451426D01*
X124652Y451364D01*
X124631Y451303D01*
X124607Y451243D01*
X124578Y451185D01*
X124546Y451128D01*
X124511Y451074D01*
X124473Y451022D01*
X124431Y450972D01*
X124387Y450925D01*
X124340Y450881D01*
X124290Y450839D01*
X124238Y450801D01*
X124184Y450766D01*
X124127Y450734D01*
X124069Y450705D01*
X124009Y450681D01*
X123948Y450660D01*
X123886Y450642D01*
X123822Y450629D01*
X123758Y450619D01*
X123694Y450613D01*
X123629Y450611D01*
X123629Y450610D02*
X122557Y450610D01*
D10*
X96520Y635000D02*
X45720Y635000D01*
X96520Y635000D02*
X96520Y627380D01*
X96520Y619760D01*
X45720Y619760D01*
X45720Y627380D01*
X45720Y635000D01*
X96520Y627380D02*
X99060Y627380D01*
X45720Y627380D02*
X43180Y627380D01*
D11*
X67068Y638175D02*
X67068Y643001D01*
X68409Y643001D01*
X68480Y642999D01*
X68552Y642993D01*
X68622Y642984D01*
X68692Y642971D01*
X68762Y642954D01*
X68830Y642933D01*
X68897Y642909D01*
X68963Y642881D01*
X69027Y642850D01*
X69090Y642815D01*
X69150Y642777D01*
X69209Y642736D01*
X69265Y642692D01*
X69319Y642645D01*
X69370Y642596D01*
X69418Y642543D01*
X69464Y642488D01*
X69506Y642431D01*
X69546Y642371D01*
X69582Y642310D01*
X69615Y642246D01*
X69644Y642181D01*
X69670Y642115D01*
X69693Y642047D01*
X69712Y641978D01*
X69727Y641908D01*
X69738Y641838D01*
X69746Y641767D01*
X69750Y641696D01*
X69750Y641624D01*
X69746Y641553D01*
X69738Y641482D01*
X69727Y641412D01*
X69712Y641342D01*
X69693Y641273D01*
X69670Y641205D01*
X69644Y641139D01*
X69615Y641074D01*
X69582Y641010D01*
X69546Y640949D01*
X69506Y640889D01*
X69464Y640832D01*
X69418Y640777D01*
X69370Y640724D01*
X69319Y640675D01*
X69265Y640628D01*
X69209Y640584D01*
X69150Y640543D01*
X69090Y640505D01*
X69027Y640470D01*
X68963Y640439D01*
X68897Y640411D01*
X68830Y640387D01*
X68762Y640366D01*
X68692Y640349D01*
X68622Y640336D01*
X68552Y640327D01*
X68480Y640321D01*
X68409Y640319D01*
X68409Y640320D02*
X67068Y640320D01*
X68677Y640320D02*
X69749Y638175D01*
X72491Y639247D02*
X73563Y643001D01*
X72491Y639247D02*
X75172Y639247D01*
X74368Y640320D02*
X74368Y638175D01*
D10*
X270820Y510100D02*
X270820Y495530D01*
X272090Y557100D02*
X272090Y560100D01*
X355340Y596670D02*
X393820Y596670D01*
X322690Y495530D02*
X270820Y495530D01*
X270820Y596670D02*
X322700Y596670D01*
X355340Y495530D02*
X393820Y495530D01*
X393820Y596670D01*
X270820Y596370D02*
X270820Y582100D01*
X272090Y535100D02*
X272090Y532100D01*
D11*
X396875Y539048D02*
X401701Y540656D01*
X396875Y542265D01*
X396875Y545049D02*
X401701Y545049D01*
X396875Y545049D02*
X396875Y546389D01*
X396877Y546460D01*
X396883Y546532D01*
X396892Y546602D01*
X396905Y546672D01*
X396922Y546742D01*
X396943Y546810D01*
X396967Y546877D01*
X396995Y546943D01*
X397026Y547007D01*
X397061Y547070D01*
X397099Y547130D01*
X397140Y547189D01*
X397184Y547245D01*
X397231Y547299D01*
X397280Y547350D01*
X397333Y547398D01*
X397388Y547444D01*
X397445Y547486D01*
X397505Y547526D01*
X397566Y547562D01*
X397630Y547595D01*
X397695Y547624D01*
X397761Y547650D01*
X397829Y547673D01*
X397898Y547692D01*
X397968Y547707D01*
X398038Y547718D01*
X398109Y547726D01*
X398180Y547730D01*
X398252Y547730D01*
X398323Y547726D01*
X398394Y547718D01*
X398464Y547707D01*
X398534Y547692D01*
X398603Y547673D01*
X398671Y547650D01*
X398737Y547624D01*
X398802Y547595D01*
X398866Y547562D01*
X398927Y547526D01*
X398987Y547486D01*
X399044Y547444D01*
X399099Y547398D01*
X399152Y547350D01*
X399201Y547299D01*
X399248Y547245D01*
X399292Y547189D01*
X399333Y547130D01*
X399371Y547070D01*
X399406Y547007D01*
X399437Y546943D01*
X399465Y546877D01*
X399489Y546810D01*
X399510Y546742D01*
X399527Y546672D01*
X399540Y546602D01*
X399549Y546532D01*
X399555Y546460D01*
X399557Y546389D01*
X399556Y546389D02*
X399556Y545049D01*
X399556Y546657D02*
X401701Y547730D01*
X397947Y550471D02*
X396875Y551812D01*
X401701Y551812D01*
X401701Y553152D02*
X401701Y550471D01*
M02*
